<?xml version="1.0" encoding="utf-8"?>
<!-- Generator: Adobe Illustrator 26.3.1, SVG Export Plug-In . SVG Version: 6.00 Build 0)  -->
<svg version="1.1" id="Layer_1" xmlns="http://www.w3.org/2000/svg" xmlns:xlink="http://www.w3.org/1999/xlink" x="0px" y="0px"
	 viewBox="0 0 400 400" style="enable-background:new 0 0 400 400;" xml:space="preserve">
<style type="text/css">
	.st0{fill:#C0E1BF;}
	.st1{fill:#FCE59C;}
	.st2{fill:#515251;}
	.st3{fill:#C0E1BF;stroke:#C0E1BF;stroke-width:0.25;stroke-miterlimit:10;}
	.st4{fill:#FFFFFF;}
	.st5{fill-rule:evenodd;clip-rule:evenodd;fill:none;stroke:#C0E1BF;stroke-width:0.75;stroke-miterlimit:10;}
	.st6{fill-rule:evenodd;clip-rule:evenodd;fill:#C0E1BF;}
	.st7{fill-rule:evenodd;clip-rule:evenodd;fill:#C77890;}
	.st8{fill-rule:evenodd;clip-rule:evenodd;fill:#7E246B;}
	.st9{fill-rule:evenodd;clip-rule:evenodd;fill:#FCE59C;}
	.st10{fill:#7E246B;}
	.st11{fill:#C77890;}
</style>
<path class="st5" d="M342.4,206.7c2.6,22.4-12.9,35.1-28,38.5c7.3,3,15.2,5.5,17.1,12c15.2,0.3,30.4,4.8,44.7,8.6
	c-6.9,5.8-15.5,3.2-23.9,5.2c-15.6,3.7-28,10.5-45,6.9c-10.6-2.3-20.2-8.2-32.6-12.2c-1.9-0.3-1.4,3.1-3.6,2.3
	c2.7,14.8,18.5,32.7,7.2,48.2c1.1,5.7,6.2,6.4,9.2,10.3c13.5,17.5,5.5,48.5,41.7,51.5c-10.6,17.4-45,11.7-58.3-3.3
	c-2.3-0.9-0.4,4.6-3.6,2.3c-12.3-6-19.7-15.1-20.8-28.3c-9.7-0.3-16.1-27.7-12.1-39.9c2.1-6.4,8.4-8.3,13.5-14.7
	c8.6-10.8,18.1-30.5,14.5-38.3c-2.5-5.5-7.8-5.5-14.1-11.3c-1.9-7.6-0.8-21.5-11-21c-4.6,8.6-1.9,19.9-3.2,29.3
	c-4.9-3.7-5.4-10.2-9.3-14.4c-4.6,24.4-21.9,49.1-1.2,62.9c-17.1,1-28.3-16.3-28.3-32c-17.9,9.9-33.3,31-61,18.9
	c-3.4-1.5-5.9-5.4-10.8-7.5C111.9,287,97.6,289,92.3,305c-9.4-10.9,1.1-29.7,6.6-40c-7.8-1.5-12.4,7.8-22,10.8
	c-6.8,2.1-15,0.2-22.8,0.2c-11.2,0.1-23.9,7.2-30-0.3c8.9-6,19-3.6,27.7-8.5c11-6.2,18.2-19.6,31.7-22.2c-0.7-9.5-2.1-18.5-4.6-26.9
	c-17.9,4.6-17.6-15.4-33.5-17.6c-1-10.6,1.5-23.4,7.6-30.5c-0.7-3.8-4.9-5.4-5.2-9.4c0.9-12.5,8.2-12.6,16.1-17.2
	c11.3-6.6,20.7-21.2,39.5-15.3c-12-22.7-19.7-53.6-32.5-79.5c-4.2-8.4-11.2-16-11.1-25.2c7.1,8.1,8.7,22.6,25.3,22
	c11.3,9.6,10,27.7,8.5,42.2c-0.4,3.8,5,9.8,11.4,9.7c12.7,10,17.8,29.4,36.4,32.7c-1.2-8-7.4-10.9-6.3-19
	c1.3-9.3,12.6-16.3,9.7-25.9c7.1-7.7,18.7-0.3,29.3,3.2c4.2-0.1,6.1-10.3,12.5-9.7c10.2,0.9,13.6,19.3,16.9,27.5
	c4.9,12.5,17,23.7,21.3,35.7c4.9,13.7,1.6,30.4,7.7,41c4-31.6-9-66.5,13.2-94.5c10.4,8,1.7,28.5,6.9,39.8
	c15.4-17.7,0.2-39.4,2.1-57.5c2.8-27.1,12.6-48.8,30.1-62.9c4.6,1.8-2.4,5.1-2.7,7.7c1.5,20.3,20.9,36.9,4.4,61
	c10.8-0.5,17-14.9,26.6-12.9c-3.3,9.5-7.3,17.8-13.3,23c0.1,2.2,1.8,3.4,0.7,6.4c-4.4,6.9-8.2,14.6-14.4,18.6
	c-5,18.7-19.3,22.9-29.1,34.1c17.1-15.7,59.8-3.3,83.6-13c-10.2,17.6-26.3,26.1-44.2,31.9c-3.3,8.6-13.8,5.9-19,11.4
	c11.4,3.2,24,9.7,33.2,9.2c-6.2,10.3-17.7,12.2-31.3,10.8c-1.3,4,6.6,2,6.1,5.5c-6.8,11.5-23.7,7.2-37.8,7.4
	c-0.8,10.9,13.2,6.6,18.4,6c22.5-2.3,42.1-14.4,58.9-23.5c5.2-13,10.2-26.5,18.8-34.3c-6.3,17.9,2.8,28.2,0.5,45.7L342.4,206.7
	L342.4,206.7z"/>
<path class="st6" d="M256.9,70.2L256.9,70.2c-1.1,10.6,4,19.1,5.1,29.1c3.2,28.6-20.7,48.5-21.8,77.1c7.9-14.3,10.2-28,19.4-37.2
	c8.7-8.7,22.7-12.8,24.9-28.8c6.3-3.1,8.9-11.8,14-16.7c1.5-3.8-1.8-4.5-0.3-8.3c4.8-4.5,9.1-9.7,11.2-18.3
	c-7.2,0.4-16.8,15.2-26.4,11.9c17.1-23.3,0.9-43.1-4.2-62C265.4,30.1,258.9,51.6,256.9,70.2L256.9,70.2z"/>
<path class="st6" d="M237.5,160.3L237.5,160.3c0.7-11.4,11.8-18,13.3-28.2c0.5-3-2.1-8.2-2.4-12.9c-0.7-10.1,2.6-22.9-2.6-26.4
	C231.9,111.4,231.4,142.3,237.5,160.3L237.5,160.3z"/>
<path class="st7" d="M201.3,121.4L201.3,121.4c-1.3-15.9-1.8-32.3-15.1-40.5c-5.3,0.5-5.6,8.9-10.5,10.2c-10.3-2.2-21-10.4-27.9-5
	c1.7,10.5-9.2,16.3-10.5,24.7c-1.3,8.5,5.6,13.7,8.8,21.6c16.7-5.4,42.9,3.5,55.6,11C198.4,138.1,195.7,127.2,201.3,121.4
	L201.3,121.4z"/>
<path class="st6" d="M274.1,177.5L274.1,177.5c-6.1-0.5-9.7,3.7-14.7,1c10.7-7.1,28.3-5,35.6-17.5c16.1-3.7,33.1-10.7,40-24.3
	c-27.3,6.2-54.5,1.6-74.8,19.1c-11.5,9.9-12.6,29.8-23.1,44.7c4.5,7.9,12.8,4.5,18.6,5c11.1,1.1,21,4.3,26.7-3.6
	c-2.5-2-7.3-2.6-6.8-6.7c10.5-1.7,27.7-0.1,30.9-8.9C295.3,187.8,284.9,178.4,274.1,177.5L274.1,177.5z"/>
<path class="st8" d="M200.2,131.5L200.2,131.5c0,14.9,15.6,26.8,12,45.1c7.3,7.2,11.1,16.7,22.3,21.4c-9.3-29.8-9.5-65.4-32-86.7
	C204.7,119.3,200.2,124.6,200.2,131.5L200.2,131.5z"/>
<path class="st9" d="M240.2,190.9L240.2,190.9c7.7-28.6,14.9-41.6,46-50.1c2-0.5,2.3-1.1-0.2-1.6
	C260.3,138.7,242.4,163.8,240.2,190.9L240.2,190.9z"/>
<path class="st6" d="M336.2,225.1L336.2,225.1c8.6-23.5,5.1-36.5,2.2-56.4C322.7,188.6,328.2,208.4,336.2,225.1L336.2,225.1z"/>
<path class="st7" d="M144.5,135L144.5,135c-4.6,1.6-13.6,12.4-21.3,17.1c-12.3,7.6-9.2,17.4-0.8,27c1.3,4.8-2.5,12.9,1.9,15.7
	c8.4-1.1,13.3-14.5,24.3-7.2c-9.5,3.7-13.9,15.5-26.8,13.9c-2.2,5.1,0.7,6.9,2,9.8c12.8,1.4,25-7.3,37.5-10.5
	c2.3-1.5-0.2-1.9,1.1-4.9c5.5-2.1,15.5-2.5,22.4,1.7c1.8-7.9-10.3-7-12.9-12.1c1.4-1.8,4.2-1.5,5.8-2.9c-6.7-6.4-22.7-3.5-27.3-8
	c7.8-6.4,21.3,0.2,33.5,0.6c-1.4-3.4-4-4.3-5-7.9c1-1.9,3.4-1.3,1.8-3.7c-4.1-3.3-12.5-3.9-13.6-9.1c3.3-4.2,2.4-10.5,2.2-15.1
	c7-3.1,20.7,4.3,27.1,3.8C182.3,135.8,162.5,128.8,144.5,135L144.5,135z"/>
<path class="st9" d="M235.9,181.7L235.9,181.7c0.5-4.3,6.5-25.8,8-32.4C239.6,158.3,234.4,171.2,235.9,181.7L235.9,181.7z"/>
<path class="st7" d="M108.9,141.8L108.9,141.8c1,5.9-0.6,13.4-2.5,21.2c9.2,9,10.6,27.7,2.1,42.9c2.5,1.8,6.6,2.6,10.7,3.3
	c-0.3-2.6-0.1-5.6,0.9-9.1c3.5-2.9,11.5,1.1,12.6-5.6c-3.6,0.6-5.5,3.8-10,3c-5.3-4.7-0.8-9.4-2.7-16.1c-2.9-10-15.4-16.8-4.1-28.8
	c6.7-2.7,11.4-7.6,17.1-11.9c3.7-2.8,9.1-4.8,7.9-7.6c-7.6-1-9.9-2-17.8-3.8C117.2,131.9,112.7,136.3,108.9,141.8L108.9,141.8z"/>
<path class="st7" d="M98.2,129.1L98.2,129.1c-13.1-2-24.5,12-34.8,17.3c-6.6,3.4-12.3,4-13.3,13.7c0.6,3.9,4.8,5.4,5.2,9.4
	c-4.6,8.9-10.2,21-6.6,30.7c15.4,1.4,13.5,20.3,29.7,15.7c-7.3-7.7-8-27.8,1-38.1c-2.9-2.8-12.2,2.2-11.2-5.5
	c1.7-4.8,10.8,1.8,12.2-3.6c-0.7-3.3-6.6,1.6-5.5-3.3c18.8-2.1,26.3-21.8,39.2-33C107.7,133.5,103.4,130,98.2,129.1L98.2,129.1z"/>
<path class="st8" d="M105.7,204.2l-0.4,2c4.6-5.9,5-12.7,5.4-20.3c0.3-4.9-1.3-9.6-4-13.6c-5.6-8.2-4.4-23.9,0.4-28.2
	c-17.6,15.9-20.9,50.7-1.7,62.2L105.7,204.2z"/>
<path class="st6" d="M331.6,232.4L331.6,232.4c5.5-13.6-8.3-23.9-7.4-37.8c-22.8,12.6-45.7,25-76.8,24.8c22.5,7.6,38.9-1.3,52.5-3.2
	c-11.6,9.8-29,10.5-46,11.8C264.2,248.1,323.8,251.6,331.6,232.4L331.6,232.4z"/>
<path class="st7" d="M211.3,209.5L211.3,209.5c-5.5,15.8-19.1,20.6-31.4,30.5c-3.8,10.4-5.8,17.4-2.6,26.4c6-0.8,10.8-3.5,13.4-9.5
	c4.8-0.4,13.5-2,12.8-6.6c-3.6,2.1-15.9,0.2-16.6-4.6c12.2-4.5,24.2-7,29.5-21.6c6.4-17.5,8-28.6-1-38.5
	C211.3,192.8,213.7,202.6,211.3,209.5L211.3,209.5z"/>
<path class="st8" d="M231.6,245L231.6,245c-0.1-20.1,5.4-43.8-10.1-54C228.4,206.7,221.1,231.6,231.6,245L231.6,245z"/>
<path class="st8" d="M78.2,173.5L78.2,173.5c-3.1-0.3-7.5-2.8-8.3,0.3c3.1,2.8,7.7-1,11.9,2.6c2.7-2.3,2.1-8.3,1.4-11.1
	C81.7,166.9,82.6,173.4,78.2,173.5L78.2,173.5z"/>
<path class="st8" d="M235.2,219.8L235.2,219.8c3.2-7.8,2.1-15.5-1.7-21.1C235.8,204.7,232.1,214.4,235.2,219.8L235.2,219.8z"/>
<path class="st6" d="M245.1,215.8L245.1,215.8c0.2-3.8,1.3-8.2-3.2-9C240.9,211.1,242.9,213.5,245.1,215.8L245.1,215.8z"/>
<path class="st8" d="M134.1,192.8L134.1,192.8c3-0.7,9.7-2.5,8.4-5.4C139.9,189.5,135.3,188.5,134.1,192.8L134.1,192.8z"/>
<path class="st8" d="M237.1,219.2L237.1,219.2c0.8,1.1,6.1,1.8,8.1,0.7c-6.2-0.6-3.1-7.1-6.2-9.6
	C237.7,213.9,240.2,217.1,237.1,219.2L237.1,219.2z"/>
<path class="st8" d="M169.2,251.9L169.2,251.9c0,3.8,1.4,5.7,3,10c-6.1-33,30.4-33.6,35.2-57.6C196.4,220.9,169.5,220.9,169.2,251.9
	L169.2,251.9z"/>
<path class="st7" d="M189.9,246.3L189.9,246.3c7,4.5,15.3,1.3,19.2,2.1c-3,7.6-10,9.2-16.8,10.9c-2.9,6-8.3,8.3-14.4,9.3
	c-1.1,3,2.1,3.2,1.9,5.6c9,0.3,10.3-11.3,21.4-7.8c17.6-4.5,27.9-36.6,20.1-54.7C218.5,235.2,205.9,243.5,189.9,246.3L189.9,246.3z"
	/>
<path class="st9" d="M262.9,224.8L262.9,224.8c-5.4-0.5-12.9-4.1-17-2.6C251,224.1,258.3,227,262.9,224.8L262.9,224.8z"/>
<path class="st7" d="M87.6,197.3L87.6,197.3c5.1,2.4,6.2,7.3,5.4,13.6c4.2,1.7,7-3,9.3-0.1c-3.5,9.2-10.7,12.3-7.1,23.3
	c-1.3,2-4.2,1.4-5,4.1c6.9,5.4,11.9-1.1,17.1-2.5c9.4,4.9,17.1,3.6,24.7,5.3c-0.2-6.7-1.8-12.4-0.9-19.9c-6.4-1.6-7.2,5.6-12.6,5.6
	c-3.3-7.2,7-9.6,6-13.2c-7.9-4.7-11.3,7.6-16.8,10.9c-2.5-4.9,1.7-10.3,4.2-14.6c-12.1,0.9-15.2-11.6-21.7-19.2
	C89.9,193.8,87.5,193.7,87.6,197.3L87.6,197.3z"/>
<path class="st9" d="M252.7,243.3L252.7,243.3c-3.9-4.6-1.2-17.9-7.5-18.2C250.5,228.8,247.1,242.6,252.7,243.3L252.7,243.3z"/>
<path class="st6" d="M253.9,242.5L253.9,242.5c10.4,0.6,13.9,12.2,21.2,17c18.1,12.1,38.8,3.3,55-0.5c-4.2,0-4.7-3.8-5.9-5.1
	c-12.2-14-33.1-1.5-41.9,2.6c-5.1-2.1-5.3-9-10.4-11.1c-12.9,4.3-15.3-10.6-20.2-16.8C250.7,234.3,254.2,237.2,253.9,242.5
	L253.9,242.5z"/>
<path class="st9" d="M269.6,241.8L269.6,241.8c-4.6,0.4-7.9-4.5-9.7-3.1C260.2,241.5,268.1,247.4,269.6,241.8L269.6,241.8z"/>
<path class="st6" d="M276.3,244.2L276.3,244.2c0.6,4.2,2.6,7.4,6.2,9.6c3.5-2.5,7.6-4.1,10.8-7C288.7,247.7,282,245.2,276.3,244.2
	L276.3,244.2z"/>
<path class="st6" d="M296.3,271.4L296.3,271.4c27.6,13.4,48.7-2.8,71.6-5.3C338.3,254.4,320.8,270.9,296.3,271.4L296.3,271.4z"/>
<path class="st8" d="M111.3,216.9L111.3,216.9c1.2-2.5,3.6-3.2,5.2-5.1C113.7,211,109.6,214.9,111.3,216.9L111.3,216.9z"/>
<path class="st8" d="M121.3,223.2L121.3,223.2c1.6-2.8,5.5-2.1,6.4-5.9C124.6,216.9,119.7,220.7,121.3,223.2L121.3,223.2z"/>
<path class="st6" d="M273.4,262.3L273.4,262.3c3.3,3.8,24.7,8.2,22.8,4.9C288.7,269.2,278.7,261.6,273.4,262.3L273.4,262.3z"/>
<path class="st6" d="M197.5,268.7L197.5,268.7c-0.3,14.1,7,23.3,18.4,29.9c-6.4-9.2-5.1-27.3,0.6-41.3
	C211.3,262.8,205.6,267.7,197.5,268.7L197.5,268.7z"/>
<path class="st7" d="M85.6,249.7L85.6,249.7c8,11,17.3,4,25.2,3.4c10.8-0.9,19,7.9,26.2,3.6c-1.1-4.4-2.8-8.4-3.4-13.2
	c-11.1-1.3-16.9-1.3-26.7-5.8c-6.3,8.8-20.8,3.6-22.5-5.9C83.2,238.7,87.7,242.1,85.6,249.7L85.6,249.7z"/>
<path class="st8" d="M157.7,261.1L157.7,261.1c-6.1,0.4-10.2-3.7-17.8-3.8c-4.3-0.1-7.3,3.2-11,2.8c-4.9-0.6-8.3-4.5-13.4-5
	c-7-0.6-11,3.8-17.5,4.5c2.4,1.9,1.8,5.7,4.7,7.2c4.6-12.9,15.8-2.7,25.8,0.4c13.6,4.2,36.6,3.3,40-7.9
	C165.6,257.4,161.1,260.9,157.7,261.1L157.7,261.1z"/>
<path class="st8" d="M145.2,270.8L145.2,270.8c-1.3,5.4,5,5.9,5,10.4c-5.8,2.5-17-3.4-22.6-0.7c16,14,43.3,9.9,51.7-4.4
	c-5.9-2.8-5.6-9.5-10.7-12.7C164.4,271.5,154.3,270.4,145.2,270.8L145.2,270.8z"/>
<path class="st6" d="M81.9,250.4L81.9,250.4c-11.2,1.7-18.2,14.4-26.7,18.8c-6.7,3.4-13.2,2.5-21.5,5.9c20.4-2.3,50,0.2,59.6-15.1
	c-3.9-3.3-6.1-4.3-9.8-7.7L81.9,250.4z"/>
<path class="st7" d="M138.1,270.3L138.1,270.3c-10.6,2.5-34-18.4-32.6,2.3c5.8,0.5,6,4.7,10,6.3c7.4-4.3,21.4,1.6,30.2-0.7
	C141.7,276.5,142.9,271.5,138.1,270.3L138.1,270.3z"/>
<path class="st9" d="M256.7,330.1L256.7,330.1c-4.3-10-5.4-22.1-6-34.4c-3.4,13.2-0.9,22.7,0.1,33.2
	C252.7,322.9,255.6,332.9,256.7,330.1L256.7,330.1z"/>
<path class="st6" d="M92.6,298.8L92.6,298.8c4.8-9.8,14.4-11.9,22.3-16.9c-5.1-4.3-14.3-9-15-13.1c0-0.1-0.2-0.1-0.2,0
	C98.3,272,88.2,281.5,92.6,298.8L92.6,298.8z"/>
<path class="st6" d="M280.9,344.7L280.9,344.7c-0.9,2.5-5.4-0.8-6.6,1.1c3.2,18.1,15.8,40.4,40.2,38c-31.9-7.3-24.8-45.5-40.6-59.7
	C272.3,333.4,283.2,334.8,280.9,344.7L280.9,344.7z"/>
<path class="st6" d="M88.6,82.5c0,0-21.9-46.4-16.9-38.9s16,11,18,14c2,3,2.3,7.8,1.7,18.3S91,88.1,88.6,82.5z"/>
<path class="st6" d="M107.9,128.9c0,0-19.4-41.4-16.2-37.5c3.2,3.9,6.6,11.1,13.1,14.7c7,3.9,13.1,12.3,16.2,15s-0.1,2.6-3.3,2.5
	C114.5,123.5,107.9,128.9,107.9,128.9z"/>
<path class="st9" d="M111.3,128.9c0,0,4.2-3.7,8.7-3.5c4.5,0.3,7,1.7,7,1.7l3,1.7c0,0-4.1-2.1-7.7-1.7c-3.6,0.4-3,1-7.3,2.1
	C110.7,130.5,111.3,128.9,111.3,128.9z"/>
<path class="st9" d="M85.6,52.7c-0.3-0.2-0.7-0.3-1.1-0.5c-1-0.3-3.2-1-4.7-2.4c-2.1-1.9-4.7-3.7-0.8-2.7c3.9,0.9,5.9,0.3,7.2,1.8
	c1.3,1.5,3.6,5.9,3.6,5.9L85.6,52.7z"/>
<path class="st9" d="M116.3,113.8c0,0-8.3-11.9-9.9-12.4c-1.6-0.5-6.9-3.8-7.6-3.4c-0.7,0.4,2.3,3.4,4.5,4.8
	C105.5,104,116.3,113.8,116.3,113.8z"/>
<path class="st9" d="M236.2,196.6c0,0-1-4.4,0-9.6c1-5.2,2.6-8.7,2.6-8.7s0.4,7,0,10.9c-0.4,3.9-3,8.7-3,8.7L236.2,196.6z"/>
<g>
	<g>
		<path class="st0" d="M266.4,272.5c0.6,8.4,2.3,16.6,5.2,24.5c0.3,0.7,1.5,0.4,1.2-0.3c-2.8-7.8-4.6-15.9-5.2-24.2
			C267.6,271.7,266.4,271.7,266.4,272.5L266.4,272.5z"/>
	</g>
</g>
<g>
	<g>
		<path class="st0" d="M266.6,272.3c-2.7,5.1-6,10-9.8,14.4c-0.5,0.6,0.4,1.5,0.9,0.9c3.8-4.5,7.2-9.4,10-14.6
			C268.1,272.2,267,271.6,266.6,272.3L266.6,272.3z"/>
	</g>
</g>
<g>
	<g>
		<path class="st0" d="M266.4,275.3c-0.7,8.9,0.1,17.9,2.4,26.5c0.2,0.8,1.4,0.4,1.2-0.3c-2.3-8.5-3-17.4-2.4-26.2
			C267.7,274.5,266.4,274.5,266.4,275.3L266.4,275.3z"/>
	</g>
</g>
<g>
	<g>
		<path class="st0" d="M265.7,276c-1.8,6.4-2.9,13-3.1,19.7c0,0.8,1.2,0.8,1.2,0c0.2-6.6,1.3-13.1,3.1-19.4
			C267.2,275.6,266,275.3,265.7,276L265.7,276z"/>
	</g>
</g>
<g>
	<g>
		<path class="st4" d="M238.7,159.5c-0.4-7.9-0.1-15.8,1.1-23.7c0.1-0.8-1.1-1.1-1.2-0.3c-1.2,7.9-1.6,16-1.1,24
			C237.5,160.3,238.8,160.3,238.7,159.5L238.7,159.5z"/>
	</g>
</g>
<g>
	<g>
		<path class="st4" d="M249.8,143.5c3.7-7.2,9.9-12.3,15.3-18.2c4.9-5.2,9.3-11.2,10.7-18.3c0.2-0.8-1-1.1-1.2-0.3
			c-3.3,15.5-19.1,22.8-25.9,36.2C248.3,143.6,249.4,144.3,249.8,143.5L249.8,143.5z"/>
	</g>
</g>
<g>
	<g>
		<path class="st4" d="M236.8,201.9c8.2-7.2,18.8-11.5,29.7-12.1c0.8,0,0.8-1.3,0-1.2c-11.3,0.7-22.1,5.1-30.6,12.5
			C235.4,201.5,236.2,202.4,236.8,201.9L236.8,201.9z"/>
	</g>
</g>
<g>
	<g>
		<path class="st4" d="M247.5,194.7c2.9-3.3,5.1-7.3,6.4-11.5c0.2-0.8-1-1.1-1.2-0.3c-1.2,4-3.3,7.8-6,11
			C246.1,194.5,247,195.3,247.5,194.7L247.5,194.7z"/>
	</g>
</g>
<g>
	<g>
		<path class="st4" d="M254.7,192c2-1.4,3.8-3.1,5.3-5c0.2-0.3,0.3-0.6,0-0.9c-0.2-0.2-0.7-0.3-0.9,0c-1.4,1.8-3.1,3.5-5,4.8
			c-0.3,0.2-0.4,0.5-0.2,0.9C254,192,254.4,192.2,254.7,192L254.7,192z"/>
	</g>
</g>
<g>
	<g>
		<path class="st4" d="M239.2,156c0.4-6.3,2.6-12.2,4.8-18c0.3-0.8-0.9-1.1-1.2-0.3c-2.3,5.9-4.5,12-4.9,18.4
			C237.9,156.8,239.1,156.8,239.2,156L239.2,156z"/>
	</g>
</g>
<g>
	<g>
		<path class="st4" d="M259.6,131c3.9-5.4,8-11.1,8.4-18c0.1-0.8-1.2-0.8-1.2,0c-0.5,6.6-4.5,12.2-8.3,17.4
			C258.1,131,259.2,131.6,259.6,131L259.6,131z"/>
	</g>
</g>
<g>
	<g>
		<path class="st4" d="M283.6,78.1c-5.2,5.1-8.3,12.2-8.3,19.5c0,0.8,1.2,0.8,1.2,0c0-7,2.9-13.7,7.9-18.6
			C285.1,78.4,284.2,77.5,283.6,78.1L283.6,78.1z"/>
	</g>
</g>
<g>
	<g>
		<path class="st4" d="M276.6,93.8c0.6-7.6,0.6-15.2-0.2-22.8c-0.1-0.8-1.3-0.8-1.2,0c0.7,7.6,0.8,15.2,0.2,22.8
			C275.2,94.6,276.5,94.6,276.6,93.8L276.6,93.8z"/>
	</g>
</g>
<g>
	<g>
		<path class="st4" d="M321.1,137.7c-3.7,0.8-7.3,2.5-10.8,3.9c-3.7,1.5-7.4,2.9-11,4.4c-6,2.4-12.5,4.5-17,9.4
			c-0.5,0.6,0.3,1.5,0.9,0.9c4.5-4.9,11.3-7,17.3-9.5c3.5-1.4,7.1-2.8,10.6-4.2c3.4-1.4,6.8-3,10.4-3.7
			C322.2,138.8,321.9,137.6,321.1,137.7L321.1,137.7z"/>
	</g>
</g>
<g>
	<g>
		<path class="st4" d="M285.2,223.6c8.4-3.2,16.6-7.2,24.4-11.8c0.7-0.4,0.1-1.5-0.6-1.1c-7.7,4.5-15.7,8.4-24.1,11.6
			C284.2,222.7,284.5,223.9,285.2,223.6L285.2,223.6z"/>
	</g>
</g>
<path class="st6" d="M269.4,370c0,0-17.9-28.5-20.4-38.2c-2.5-9.7-1.7-30.1-1.7-30.1s-11.2,4.5-10.4,15c0.6,8.1,1.3,18.5,4.3,24.2
	c1.2,2.3,3.5,3.8,6,4c0.7,0.1,1.4,0.1,1.8,0.1c1.9,0-0.4,12.1,7.7,19.6C264.8,372.2,269.4,370,269.4,370z"/>
<path class="st6" d="M310.5,383.7c0,0-19.1-11.1-30.2-32.5c-6.3-12.1-10.8-7.9-10.9-17.6c-0.1-9.7-3.9-32.6-3.9-32.6
	s-1.9,18.9-5,21.4c-3.1,2.5,0,31.1,13,47.8S310.5,383.7,310.5,383.7z"/>
<polygon class="st6" points="275.5,325.7 266.5,307.9 267,330.1 275.5,353.4 281.6,351.4 281.6,346.2 281.6,341.6 279.4,334.3 "/>
<g>
	<g>
		<path class="st4" d="M87.7,254.5c-4.8,2.7-8.8,6.7-14.1,8.3c-0.8,0.2-0.4,1.4,0.3,1.2c5.4-1.6,9.6-5.7,14.4-8.4
			C89.1,255.2,88.4,254.2,87.7,254.5L87.7,254.5z"/>
	</g>
</g>
<g>
	<g>
		<path class="st4" d="M86.6,254.4c-3.4,1.3-6.9,2.3-10.5,2.9c-0.8,0.1-0.5,1.3,0.3,1.2c3.6-0.6,7.1-1.6,10.5-2.9
			C87.7,255.3,87.4,254.1,86.6,254.4L86.6,254.4z"/>
	</g>
</g>
<g>
	<g>
		<path class="st4" d="M170.1,139.5c-3.9,0.3-7.7,1.4-11.2,3.2c-0.7,0.4-0.1,1.5,0.6,1.1c3.2-1.8,6.8-2.8,10.5-3.1
			C170.9,140.7,170.9,139.4,170.1,139.5L170.1,139.5z"/>
	</g>
</g>
<g>
	<g>
		<path class="st4" d="M172.5,144c-3.2,0.4-6.5,0.8-9.4,2.4c-0.7,0.4-0.1,1.5,0.6,1.1c2.7-1.5,5.8-1.9,8.8-2.2
			c0.3,0,0.6-0.3,0.6-0.6C173.1,144.3,172.8,144,172.5,144L172.5,144z"/>
	</g>
</g>
<g>
	<g>
		<path class="st4" d="M171.9,147.7c-2.3,0.5-4.6,1.4-6.7,2.6c-0.7,0.4-0.1,1.5,0.6,1.1c2-1.2,4.1-2,6.4-2.5
			C173,148.8,172.7,147.6,171.9,147.7L171.9,147.7z"/>
	</g>
</g>
<g>
	<g>
		<path class="st4" d="M164.8,195.9c-2.3-0.3-4.5,0.4-6.6,1.1c-2.2,0.8-4.3,1.6-6.4,2.7c-0.7,0.4-0.1,1.4,0.6,1.1
			c1.9-0.9,3.9-1.8,5.9-2.5c2-0.7,4.1-1.5,6.2-1.2C165.3,197.2,165.6,196,164.8,195.9L164.8,195.9z"/>
	</g>
</g>
<g>
	<g>
		<path class="st4" d="M120.3,204.3c3.6,0.9,7.3,0.6,10.7-0.8c0.3-0.1,0.5-0.4,0.4-0.8c-0.1-0.3-0.5-0.6-0.8-0.4
			c-3.2,1.3-6.7,1.6-10,0.8C119.8,202.9,119.5,204.1,120.3,204.3L120.3,204.3z"/>
	</g>
</g>
<g>
	<g>
		<path class="st4" d="M120.7,207.7c1,0.1,2,0.2,3,0.2c1,0,2-0.1,3-0.3c0.3,0,0.5-0.5,0.4-0.8c-0.1-0.4-0.4-0.5-0.8-0.4
			c-0.9,0.1-1.9,0.2-2.8,0.2c-1,0-1.9-0.1-2.9-0.2c-0.3,0-0.6,0.3-0.6,0.6C120,207.4,120.3,207.6,120.7,207.7L120.7,207.7z"/>
	</g>
</g>
<g>
	<g>
		<path class="st4" d="M215.5,236.5c2.2-2.9,4.1-6,5.5-9.4c1.5-3.4,2.5-7,3.5-10.6c0.2-0.8-1-1.1-1.2-0.3c-1,3.6-2,7.2-3.6,10.6
			c-1.4,3.2-3.3,6.2-5.4,9C213.9,236.5,215,237.1,215.5,236.5L215.5,236.5z"/>
	</g>
</g>
<g>
	<g>
		<path class="st4" d="M219.9,236.1c2.4-3.9,4.4-7.9,5.3-12.4c0.2-0.8-1.1-1.1-1.2-0.3c-0.4,2.2-1.1,4.3-2,6.3c-0.9,2-2,3.9-3.2,5.8
			C218.4,236.1,219.5,236.8,219.9,236.1L219.9,236.1z"/>
	</g>
</g>
<g>
	<g>
		<path class="st4" d="M176,133c-1.8-7.1-3-14.4-3.6-21.8c-0.1-0.8-1.3-0.8-1.2,0c0.6,7.5,1.8,14.8,3.6,22.1
			C174.9,134.1,176.1,133.8,176,133L176,133z"/>
	</g>
</g>
<g>
	<g>
		<path class="st4" d="M181.4,134.4c-1.3-4.5-2-9.2-2.1-13.9c0-0.8-1.3-0.8-1.2,0c0.1,4.8,0.8,9.6,2.1,14.2
			C180.4,135.5,181.6,135.1,181.4,134.4L181.4,134.4z"/>
	</g>
</g>
<g>
	<g>
		<path class="st4" d="M186.5,136.7c-0.8-3.6-1.1-7.3-1-11c0-0.8-1.2-0.8-1.2,0c-0.1,3.8,0.3,7.6,1,11.3
			C185.4,137.9,186.6,137.5,186.5,136.7L186.5,136.7z"/>
	</g>
</g>
<g>
	<g>
		<path class="st4" d="M190.6,138.2c-0.6-2.6-0.8-5.2-0.8-7.9c0-0.8-1.2-0.8-1.2,0c0,2.8,0.3,5.5,0.9,8.2
			C189.5,139.3,190.7,139,190.6,138.2L190.6,138.2z"/>
	</g>
</g>
<g>
	<g>
		<path class="st4" d="M195.8,140.5c-0.6-2.3-1-4.7-1.1-7.1c0-0.8-1.3-0.8-1.2,0c0.1,2.5,0.5,5,1.1,7.4
			C194.8,141.6,196,141.3,195.8,140.5L195.8,140.5z"/>
	</g>
</g>
<g>
	<g>
		<path class="st4" d="M106.3,141.1c-4.1,2.8-9,4-13.9,3.4c-0.8-0.1-0.8,1.1,0,1.2c5.1,0.7,10.3-0.6,14.5-3.5
			C107.6,141.7,107,140.6,106.3,141.1L106.3,141.1z"/>
	</g>
</g>
<g>
	<g>
		<path class="st4" d="M102.2,146.8c-2,1-4.4,1.4-6.6,1.1c-0.3-0.1-0.7,0.1-0.8,0.4c-0.1,0.3,0.1,0.7,0.4,0.8c2.6,0.4,5.2,0,7.6-1.2
			C103.5,147.6,102.9,146.5,102.2,146.8L102.2,146.8z"/>
	</g>
</g>
<g>
	<g>
		<path class="st4" d="M73.5,200c-3,0.3-6-0.3-8.5-1.9c-0.7-0.4-1.3,0.7-0.6,1.1c2.7,1.7,6,2.4,9.1,2.1c0.3,0,0.6-0.3,0.6-0.6
			C74.2,200.3,73.9,200,73.5,200L73.5,200z"/>
	</g>
</g>
<g>
	<g>
		<path class="st4" d="M76,185.4c-0.8,0-1.4-0.5-2.1-0.8c-0.8-0.4-1.7-0.6-2.6-0.7c-1.8-0.2-3.9-0.2-5.7,0.3
			c-0.8,0.2-0.4,1.4,0.3,1.2c1.7-0.5,3.7-0.5,5.5-0.3c0.9,0.1,1.6,0.4,2.3,0.8c0.7,0.4,1.4,0.7,2.2,0.7
			C76.9,186.6,76.9,185.4,76,185.4L76,185.4z"/>
	</g>
</g>
<g>
	<g>
		<path class="st4" d="M75.4,188.8c-2-0.4-4-0.6-6.1-0.6c-0.8,0-0.8,1.2,0,1.2c1.9,0,3.9,0.2,5.8,0.6c0.3,0.1,0.7-0.1,0.8-0.4
			C75.9,189.3,75.7,188.9,75.4,188.8L75.4,188.8z"/>
	</g>
</g>
<g>
	<g>
		<path class="st4" d="M74.7,195.6c-2.4,0.3-4.8,0.1-7.1-0.4c-0.8-0.2-1.1,1-0.3,1.2c2.4,0.6,4.9,0.8,7.4,0.5c0.3,0,0.6-0.3,0.6-0.6
			C75.4,196,75.1,195.6,74.7,195.6L74.7,195.6z"/>
	</g>
</g>
<g>
	<g>
		<path class="st4" d="M74.6,192.5c-1.6,0.2-3.2,0.1-4.7-0.3c-0.8-0.2-1.1,1-0.3,1.2c1.8,0.4,3.6,0.5,5.3,0.3c0.3,0,0.5-0.5,0.4-0.8
			C75.2,192.6,74.9,192.5,74.6,192.5L74.6,192.5z"/>
	</g>
</g>
<g>
	<g>
		<path class="st4" d="M74.1,205.7c-1.4,0.1-2.9,0.1-4.3-0.1c-0.3,0-0.6,0.3-0.6,0.6c0,0.4,0.3,0.6,0.6,0.6c1.4,0.2,2.9,0.2,4.3,0.1
			c0.3,0,0.6-0.3,0.6-0.6C74.8,206,74.5,205.6,74.1,205.7L74.1,205.7z"/>
	</g>
</g>
<g>
	<g>
		<path class="st4" d="M77.8,211.6c-1.6,0-3.3,0-4.9,0c-0.8,0-0.8,1.2,0,1.2c1.6,0,3.3,0,4.9,0C78.6,212.9,78.6,211.6,77.8,211.6
			L77.8,211.6z"/>
	</g>
</g>
<g>
	<g>
		<path class="st4" d="M173.1,264.8c-2.3,2.8-5,5.3-8,7.2c-0.7,0.4-0.1,1.5,0.6,1.1c3.2-2,6-4.5,8.3-7.4c0.2-0.3,0.3-0.6,0-0.9
			C173.7,264.6,173.3,264.5,173.1,264.8L173.1,264.8z"/>
	</g>
</g>
<g>
	<g>
		<path class="st4" d="M170.3,274.9c1.7-1.1,3.2-2.5,4.4-4c0.2-0.3,0.3-0.6,0-0.9c-0.2-0.2-0.7-0.3-0.9,0c-1.2,1.5-2.6,2.8-4.2,3.8
			c-0.3,0.2-0.4,0.6-0.2,0.9C169.6,274.9,170,275,170.3,274.9L170.3,274.9z"/>
	</g>
</g>
<g>
	<g>
		<path class="st4" d="M136.8,252.1c-1.7,0.7-3.5,1-5.3,0.9c-0.3,0-0.6,0.3-0.6,0.6c0,0.4,0.3,0.6,0.6,0.6c2,0.2,4.1-0.2,5.9-1
			c0.3-0.1,0.4-0.6,0.2-0.9C137.4,252,137.1,252,136.8,252.1L136.8,252.1z"/>
	</g>
</g>
<g>
	<g>
		<path class="st4" d="M135.6,248.5c-1.4,0.1-2.9,0.1-4.3,0.2c-0.3,0-0.6,0.3-0.6,0.6c0,0.3,0.3,0.6,0.6,0.6
			c1.4-0.1,2.9-0.1,4.3-0.2c0.3,0,0.6-0.3,0.6-0.6C136.2,248.8,135.9,248.5,135.6,248.5L135.6,248.5z"/>
	</g>
</g>
<g>
	<g>
		<path class="st4" d="M261.4,315.3c-0.2,5.4,0.8,10.8,3.1,15.7c0.3,0.7,1.4,0.1,1.1-0.6c-2.2-4.7-3.2-9.9-2.9-15
			C262.7,314.5,261.5,314.5,261.4,315.3L261.4,315.3z"/>
	</g>
</g>
<g>
	<g>
		<path class="st4" d="M262.4,311.1c-0.4,2.1,0.6,4,1.4,5.9c0.7,1.6,1.2,3.6,2.7,4.8c0.6,0.5,1.5-0.4,0.9-0.9
			c-1.3-1-1.7-2.8-2.3-4.2c-0.7-1.6-1.7-3.4-1.4-5.2C263.7,310.7,262.5,310.3,262.4,311.1L262.4,311.1z"/>
	</g>
</g>
<g>
	<g>
		<path class="st1" d="M252.9,296.8c-0.2,4.3,0.1,8.6,0.8,12.9c0.1,0.8,1.3,0.5,1.2-0.3c-0.7-4.1-1-8.3-0.8-12.5
			C254.2,295.9,252.9,295.9,252.9,296.8L252.9,296.8z"/>
	</g>
</g>
<g>
	<g>
		<path class="st1" d="M252,331.1c0.8,3.3,2.1,6.5,4,9.3c0.4,0.7,1.5,0,1.1-0.6c-1.8-2.8-3.1-5.8-3.8-9
			C253,330,251.8,330.3,252,331.1L252,331.1z"/>
	</g>
</g>
<g>
	<g>
		<path class="st1" d="M254.4,313.7c0.2,1.8,0.7,3.6,1.5,5.3c0.2,0.3,0.6,0.4,0.9,0.2c0.3-0.2,0.4-0.6,0.2-0.9
			c-0.7-1.4-1.2-3-1.4-4.6c0-0.3-0.3-0.6-0.6-0.6C254.7,313.1,254.4,313.3,254.4,313.7L254.4,313.7z"/>
	</g>
</g>
<g>
	<g>
		<path class="st1" d="M302.3,268.4c2.7-0.1,5.4-0.5,8-1.2c0.8-0.2,0.4-1.4-0.3-1.2c-2.5,0.6-5.1,1-7.6,1.1
			C301.5,267.2,301.5,268.4,302.3,268.4L302.3,268.4z"/>
	</g>
</g>
<g>
	<g>
		<path class="st1" d="M313.4,266.9c1.4-0.4,2.7-0.8,4.1-1.2c0.3-0.1,0.5-0.4,0.4-0.8c-0.1-0.3-0.4-0.5-0.8-0.4
			c-1.4,0.4-2.7,0.8-4.1,1.2c-0.3,0.1-0.5,0.4-0.4,0.8C312.7,266.7,313.1,266.9,313.4,266.9L313.4,266.9z"/>
	</g>
</g>
<g>
	<g>
		<path class="st1" d="M271.8,259.9c-2-2-3.9-4.1-5.7-6.3c-0.2-0.3-0.7-0.2-0.9,0c-0.3,0.3-0.2,0.6,0,0.9c1.7,2.2,3.6,4.4,5.7,6.3
			C271.5,261.3,272.4,260.4,271.8,259.9L271.8,259.9z"/>
	</g>
</g>
<g>
	<g>
		<path class="st1" d="M266.7,260c0.9,1.5,1.8,2.9,2.7,4.4c0.2,0.3,0.6,0.4,0.9,0.2c0.3-0.2,0.4-0.6,0.2-0.9
			c-0.9-1.5-1.8-2.9-2.7-4.4c-0.2-0.3-0.6-0.4-0.9-0.2C266.7,259.3,266.6,259.7,266.7,260L266.7,260z"/>
	</g>
</g>
<g>
	<g>
		<path class="st1" d="M298.9,369.7c3,3.1,6.6,5.7,10.5,7.4c0.7,0.3,1.4-0.8,0.6-1.1c-3.9-1.7-7.4-4.1-10.3-7.2
			C299.3,368.2,298.4,369.1,298.9,369.7L298.9,369.7z"/>
	</g>
</g>
<g>
	<g>
		<path class="st10" d="M167,239c-2.2,4.8-1.9,10.1-1.5,15.3c0.1,0.8,1.3,0.8,1.2,0c-0.4-4.9-0.7-10.1,1.3-14.6
			C168.4,238.9,167.3,238.3,167,239L167,239z"/>
	</g>
</g>
<g>
	<g>
		<path class="st10" d="M192.8,214.3c5.3-4.8,11.1-9.4,14.7-15.6c0.4-0.7-0.7-1.3-1.1-0.6c-3.6,6.1-9.3,10.7-14.5,15.4
			C191.3,213.9,192.2,214.8,192.8,214.3L192.8,214.3z"/>
	</g>
</g>
<g>
	<g>
		<path class="st10" d="M192.3,228.8c4.1-2.5,7.3-6.1,10.4-9.7c0.5-0.6-0.4-1.5-0.9-0.9c-3.1,3.5-6.2,7.1-10.2,9.6
			C191,228.1,191.7,229.2,192.3,228.8L192.3,228.8z"/>
	</g>
</g>
<g>
	<g>
		<path class="st10" d="M189.1,230c-1.9,1.4-3.8,2.8-5.7,4.2c-0.3,0.2-0.2,0.7,0,0.9c0.3,0.3,0.6,0.2,0.9,0c1.8-1.4,3.6-2.7,5.4-4
			c0.3-0.2,0.4-0.5,0.2-0.9C189.8,229.9,189.3,229.8,189.1,230L189.1,230z"/>
	</g>
</g>
<g>
	<g>
		<path class="st10" d="M174.4,247.1c-0.6,2.3-0.9,4.7-0.9,7c0,0.8,1.3,0.8,1.2,0c-0.1-2.3,0.2-4.5,0.8-6.7
			C175.8,246.7,174.6,246.4,174.4,247.1L174.4,247.1z"/>
	</g>
</g>
<g>
	<g>
		<path class="st10" d="M130.9,215.1c7.8-1.1,15.1-4.1,22.3-7.2c0.7-0.3,0.4-1.5-0.3-1.2c-7.2,3-14.5,6-22.3,7.2
			C129.7,214,130.1,215.2,130.9,215.1L130.9,215.1z"/>
	</g>
</g>
<g>
	<g>
		<path class="st10" d="M131.2,218.5c1.5,0.1,3-0.4,4.4-0.9c1.5-0.5,3-1.1,4.5-1.6c0.8-0.3,0.4-1.5-0.3-1.2c-1.4,0.5-2.9,1-4.3,1.5
			c-1.4,0.5-2.7,1-4.2,0.9C130.4,217.2,130.4,218.4,131.2,218.5L131.2,218.5z"/>
	</g>
</g>
<g>
	<g>
		<path class="st10" d="M175.6,142.8c4,1.1,8,2.2,12,3.2c3.8,1,7.5,0.8,11.4,0.9c0.8,0,0.8-1.2,0-1.2c-1.9,0-3.8,0.1-5.7,0
			c-2-0.1-3.9-0.4-5.8-1c-3.9-1-7.8-2.1-11.6-3.1C175.1,141.4,174.8,142.6,175.6,142.8L175.6,142.8z"/>
	</g>
</g>
<g>
	<g>
		<path class="st10" d="M200.7,148.9c-6.4,1.2-13,1-19.3-0.8c-0.8-0.2-1.1,1-0.3,1.2c6.5,1.8,13.3,2.1,19.9,0.8
			C201.9,149.9,201.5,148.7,200.7,148.9L200.7,148.9z"/>
	</g>
</g>
<g>
	<g>
		<path class="st10" d="M202.4,152.4c-4.2,2.5-9.2,2.3-13.9,2.2c-0.8,0-0.8,1.2,0,1.2c4.9,0.2,10.1,0.3,14.5-2.3
			C203.7,153.1,203.1,152,202.4,152.4L202.4,152.4z"/>
	</g>
</g>
<g>
	<g>
		<path class="st10" d="M205.3,155.2c-3.3,1.7-6.7,3.1-10.3,4.1c-0.8,0.2-0.4,1.4,0.3,1.2c3.6-1,7.2-2.5,10.6-4.2
			C206.7,155.9,206.1,154.9,205.3,155.2L205.3,155.2z"/>
	</g>
</g>
<g>
	<g>
		<path class="st10" d="M209.8,201.6c0.7-0.8,1.3-1.8,1.6-2.9c0.1-0.3-0.1-0.7-0.4-0.8c-0.3-0.1-0.7,0.1-0.8,0.4
			c0,0.1-0.1,0.2-0.1,0.3c0,0.1-0.1,0.1-0.1,0.2c0,0,0-0.1,0,0c0,0,0,0.1,0,0.1c-0.1,0.2-0.2,0.4-0.3,0.7c-0.1,0.2-0.2,0.4-0.4,0.6
			c0,0-0.1,0.1-0.1,0.1c0,0,0,0-0.1,0.1c0,0-0.1,0.1,0,0c0.1-0.1,0,0,0,0c0,0,0,0-0.1,0.1c0,0.1-0.1,0.1-0.1,0.2
			c-0.2,0.2-0.3,0.6,0,0.9C209.2,201.8,209.6,201.9,209.8,201.6L209.8,201.6z"/>
	</g>
</g>
<g>
	<g>
		<path class="st10" d="M206,215.9c1.9-3.3,3.4-6.7,4.7-10.3c0.3-0.8-0.9-1.1-1.2-0.3c-1.2,3.5-2.7,6.8-4.5,10
			C204.5,216,205.6,216.6,206,215.9L206,215.9z"/>
	</g>
</g>
<g>
	<g>
		<path class="st10" d="M90.5,208.4c-1.3,1.1-2.9,1.8-4.5,2c-0.3,0.1-0.5,0.5-0.4,0.8c0.1,0.4,0.4,0.5,0.8,0.4
			c1.9-0.3,3.6-1.1,5.1-2.3c0.3-0.2,0.2-0.7,0-0.9C91.1,208.2,90.8,208.2,90.5,208.4L90.5,208.4z"/>
	</g>
</g>
<g>
	<g>
		<path class="st10" d="M89.6,204.8c-1.5,0.7-3.1,1.2-4.8,1.3c-0.3,0-0.6,0.3-0.6,0.6c0,0.3,0.3,0.6,0.6,0.6
			c1.9-0.1,3.7-0.6,5.4-1.4c0.3-0.2,0.4-0.6,0.2-0.9C90.3,204.8,89.9,204.7,89.6,204.8L89.6,204.8z"/>
	</g>
</g>
<g>
	<g>
		<path class="st10" d="M92.8,161.4c-1.1,0.2-2.3,0.3-3.4,0.5c-0.3,0-0.5,0.5-0.4,0.8c0.1,0.4,0.4,0.5,0.8,0.4
			c1.1-0.2,2.3-0.3,3.4-0.5c0.3,0,0.5-0.5,0.4-0.8C93.4,161.5,93.1,161.4,92.8,161.4L92.8,161.4z"/>
	</g>
</g>
<g>
	<g>
		<path class="st10" d="M91.6,164.8c-1.7,0.2-3.2,0.6-4.7,1.3c-0.3,0.1-0.4,0.6-0.2,0.9c0.2,0.3,0.5,0.4,0.9,0.2
			c1.3-0.6,2.7-1,4.1-1.1c0.3,0,0.6-0.3,0.6-0.6C92.3,165.1,92,164.8,91.6,164.8L91.6,164.8z"/>
	</g>
</g>
<g>
	<g>
		<path class="st10" d="M91.7,233.1c-1.1,0.5-2.1,1.2-3,2.2c-0.2,0.2-0.3,0.6,0,0.9c0.2,0.2,0.7,0.3,0.9,0c0.2-0.2,0.4-0.4,0.6-0.6
			c0.1-0.1,0.2-0.2,0.3-0.3c0,0,0.1-0.1,0.2-0.1c-0.1,0,0,0,0,0c0,0,0.1,0,0.1-0.1c0.5-0.3,1-0.6,1.5-0.9c0.3-0.1,0.4-0.6,0.2-0.9
			C92.3,233,92,233,91.7,233.1L91.7,233.1z"/>
	</g>
</g>
<g>
	<g>
		<path class="st10" d="M91.4,229.6c-1.4,0.9-2.7,1.8-4.1,2.7c-0.3,0.2-0.4,0.6-0.2,0.9c0.2,0.3,0.6,0.4,0.9,0.2
			c1.4-0.9,2.7-1.8,4.1-2.7c0.3-0.2,0.4-0.6,0.2-0.9C92.1,229.6,91.7,229.4,91.4,229.6L91.4,229.6z"/>
	</g>
</g>
<g>
	<g>
		<path class="st10" d="M166,253.6c-2.2,0.5-4.4,1.4-6.4,2.6c-0.7,0.4-0.1,1.5,0.6,1.1c1.9-1.1,4-1.9,6.1-2.5
			C167.1,254.6,166.7,253.4,166,253.6L166,253.6z"/>
	</g>
</g>
<g>
	<g>
		<path class="st10" d="M164.9,250.6c-1.6,0.1-3.1,0.7-4.4,1.8c-0.3,0.2-0.2,0.7,0,0.9c0.3,0.2,0.6,0.2,0.9,0c0,0,0.2-0.2,0.1-0.1
			c0.1-0.1,0.1-0.1,0.2-0.2c0.1-0.1,0.3-0.2,0.4-0.3c0.1-0.1,0.3-0.2,0.4-0.2c0.1,0,0.2-0.1,0.2-0.1c0,0,0.1,0,0.1-0.1c0,0,0,0,0,0
			c0.6-0.2,1.3-0.4,1.9-0.4c0.3,0,0.6-0.3,0.6-0.6C165.5,250.9,165.3,250.6,164.9,250.6L164.9,250.6z"/>
	</g>
</g>
<g>
	<g>
		<path class="st10" d="M165.4,247.5c-1-0.1-2.1,0-3.1,0.4c-0.3,0.1-0.5,0.4-0.4,0.8c0.1,0.3,0.4,0.6,0.8,0.4
			c0.2-0.1,0.5-0.2,0.7-0.2c0.1,0,0.2-0.1,0.4-0.1c0.1,0,0.1,0,0.2,0c0.1,0,0.1,0,0,0c0,0,0.1,0,0.1,0c0.5-0.1,1,0,1.5,0
			c0.3,0,0.6-0.3,0.6-0.6C166,247.8,165.7,247.6,165.4,247.5L165.4,247.5z"/>
	</g>
</g>
<g>
	<g>
		<path class="st10" d="M198.4,146.6c2.2,3,4.6,5.9,6.5,9.1c1.9,3.1,2.4,6.7,3,10.2c0.1,0.8,1.3,0.5,1.2-0.3
			c-0.5-3.5-1.1-7.1-2.9-10.2c-0.9-1.6-2.1-3.1-3.2-4.6c-1.2-1.6-2.3-3.2-3.5-4.8C199,145.3,197.9,145.9,198.4,146.6L198.4,146.6z"
			/>
	</g>
</g>
<g>
	<g>
		<path class="st10" d="M91.7,208.9c0.1-3.6-1.1-7.2-3.5-9.9c-0.5-0.6-1.4,0.3-0.9,0.9c2.1,2.5,3.3,5.7,3.1,9
			C90.4,209.7,91.7,209.7,91.7,208.9L91.7,208.9z"/>
	</g>
</g>
<g>
	<g>
		<path class="st10" d="M88.8,201.3c-0.6,0.1-1.2,0.3-1.8,0.5c-0.3,0.1-0.5,0.2-0.8,0.3c-0.1,0-0.3,0.1-0.4,0.1c0,0-0.1,0,0,0
			c0.1,0,0,0,0,0c-0.1,0-0.2,0-0.2,0c-0.3,0-0.6,0.3-0.6,0.6c0,0.3,0.3,0.6,0.6,0.6c0.6,0,1.2-0.2,1.8-0.4c0.3-0.1,0.5-0.2,0.8-0.3
			c0.1,0,0.3-0.1,0.4-0.1c0.1,0,0.1,0,0.2-0.1c0,0,0.1,0,0.1,0c0,0,0.2,0,0,0c0.3,0,0.6-0.3,0.6-0.6
			C89.4,201.7,89.2,201.3,88.8,201.3L88.8,201.3z"/>
	</g>
</g>
<g>
	<g>
		<path class="st10" d="M92.7,233.5c-0.6-3.9-0.1-7.9,1.4-11.5c0.3-0.7-0.9-1.1-1.2-0.3c-1.6,3.9-2.1,8.1-1.4,12.2
			C91.6,234.6,92.8,234.3,92.7,233.5L92.7,233.5z"/>
	</g>
</g>
<g>
	<g>
		<path class="st10" d="M91.6,226.6c-0.8-0.2-1.5,0.4-2.1,0.8c-0.6,0.4-1.2,0.7-1.9,1.1c-0.3,0.2-0.4,0.6-0.2,0.9
			c0.2,0.3,0.6,0.4,0.9,0.2c0.6-0.3,1.1-0.7,1.7-1c0.3-0.2,0.6-0.3,0.8-0.5c0.1-0.1,0.3-0.2,0.4-0.2c-0.1,0,0.1,0,0.1,0
			c0.1,0,0.1,0,0,0c0.1,0,0.1,0,0,0c0.3,0.1,0.7-0.1,0.8-0.4C92.1,227,91.9,226.6,91.6,226.6L91.6,226.6z"/>
	</g>
</g>
<path class="st11" d="M139.9,254.2c0,0-6.8-24.4-4.3-32.4c0,0,24.2-9,30.5-14.5s21.5-4.8,29.1-8.5c7.7-3.7,11.8-3.6,3.4,4.1
	c-8.3,7.7-28.6,19.8-35.7,33.4c-7.1,13.5-7.9,18.5-6.6,21.7L139.9,254.2z"/>
<path class="st11" d="M210.1,194.6l3-11.5c0,0-4-2.6-4.7-7.8s-13.4-9.7-17.3-9.2c-3.9,0.5-9.5-1.8-5.3,3.3
	c4.3,5.1,3.6,10.7,2.4,10.9c-1.1,0.3-6.1,0.7-4.5,4.2c1.6,3.5,5.9,5.9,8.5,7C195,192.6,207.3,194,210.1,194.6z"/>
<g>
	<g>
		<path class="st4" d="M213.4,185.1c-3.2,0-6.3-1.4-8.4-3.8c-0.5-0.6-1.4,0.3-0.9,0.9c2.3,2.7,5.8,4.2,9.3,4.2
			C214.2,186.3,214.2,185.1,213.4,185.1L213.4,185.1z"/>
	</g>
</g>
<g>
	<g>
		<path class="st4" d="M212.1,187.8c-2.6,0-5.2-0.7-7.5-1.9c-0.7-0.4-1.3,0.7-0.6,1.1c2.5,1.3,5.3,2,8.2,2.1
			C212.9,189.1,212.9,187.8,212.1,187.8L212.1,187.8z"/>
	</g>
</g>
<g>
	<g>
		<path class="st4" d="M211.7,190.9c-2.4,0.1-4.9,0.1-7.1-0.9c-0.3-0.1-0.7-0.1-0.9,0.2c-0.2,0.3-0.1,0.7,0.2,0.9
			c2.4,1.1,5.1,1.2,7.7,1.1C212.5,192.1,212.6,190.8,211.7,190.9L211.7,190.9z"/>
	</g>
</g>
<g>
	<g>
		<path class="st4" d="M175.1,184.9c-3.8,0.3-7.5-0.9-11.2-0.1c-0.8,0.2-0.5,1.4,0.3,1.2c3.6-0.8,7.3,0.4,10.9,0.2
			C175.9,186.1,175.9,184.9,175.1,184.9L175.1,184.9z"/>
	</g>
</g>
<g>
	<g>
		<path class="st4" d="M178.8,187.3c-4-0.3-8-0.2-11.9,0.4c-0.8,0.1-0.5,1.3,0.3,1.2c3.8-0.6,7.7-0.7,11.6-0.4
			C179.6,188.6,179.6,187.3,178.8,187.3L178.8,187.3z"/>
	</g>
</g>
<g>
	<g>
		<path class="st4" d="M190.9,197.8c-2.3,0.8-4.2,2.6-6.1,4c-2,1.5-4.1,3.1-6,4.7c-4,3.3-7.9,6.7-11.3,10.6
			c-0.5,0.6,0.4,1.5,0.9,0.9c3.2-3.7,6.9-7,10.7-10.1c1.9-1.6,3.9-3.1,5.9-4.6c1.9-1.5,4-3.4,6.3-4.3
			C192,198.7,191.7,197.5,190.9,197.8L190.9,197.8z"/>
	</g>
</g>
<g>
	<g>
		<path class="st4" d="M180.9,200.4c-4.2,3.4-8.3,6.9-12.1,10.7c-0.6,0.6,0.3,1.4,0.9,0.9c3.9-3.7,7.9-7.3,12.1-10.7
			C182.4,200.8,181.6,199.9,180.9,200.4L180.9,200.4z"/>
	</g>
</g>
<g>
	<g>
		<path class="st4" d="M134.4,235.2c2.6-0.8,5-1.9,7.3-3.3c0.7-0.4,0.1-1.5-0.6-1.1c-2.2,1.4-4.6,2.4-7,3.2
			C133.3,234.2,133.7,235.4,134.4,235.2L134.4,235.2z"/>
	</g>
</g>
<g>
	<g>
		<path class="st4" d="M134.4,240.1c3.4-0.8,6.6-2.2,9.5-4.2c0.6-0.5,0-1.6-0.6-1.1c-2.7,2-5.9,3.4-9.2,4.1
			C133.3,239.1,133.6,240.3,134.4,240.1L134.4,240.1z"/>
	</g>
</g>
<g>
	<g>
		<path class="st4" d="M122.1,179.6c2.4-2.4,4.8-4.6,7.4-6.8c0.3-0.2,0.2-0.7,0-0.9c-0.3-0.3-0.6-0.2-0.9,0c-2.6,2.2-5,4.4-7.4,6.8
			C120.6,179.3,121.5,180.2,122.1,179.6L122.1,179.6z"/>
	</g>
</g>
<g>
	<g>
		<path class="st4" d="M120.3,177.4c1.2-1.6,2.4-3,3.7-4.5c0.2-0.3,0.2-0.6,0-0.9c-0.2-0.2-0.7-0.3-0.9,0c-1.4,1.5-2.7,3.1-3.9,4.7
			c-0.2,0.3,0,0.7,0.2,0.9C119.8,177.8,120.1,177.7,120.3,177.4L120.3,177.4z"/>
	</g>
</g>
<g>
	<g>
		<path class="st4" d="M122.1,184.7c2.3-2.2,4.7-4.3,7.1-6.4c0.6-0.5-0.3-1.4-0.9-0.9c-2.4,2.1-4.8,4.2-7.1,6.4
			C120.6,184.4,121.5,185.2,122.1,184.7L122.1,184.7z"/>
	</g>
</g>
<g>
	<g>
		<path class="st4" d="M130.8,142.2c-3.4,0.2-6.7-0.2-10-1c-0.8-0.2-1.1,1-0.3,1.2c3.4,0.9,6.9,1.2,10.3,1
			C131.6,143.4,131.7,142.2,130.8,142.2L130.8,142.2z"/>
	</g>
</g>
<g>
	<g>
		<path class="st4" d="M134.9,139.3c-2.2,0.3-4.4,0.1-6.5-0.6c-0.8-0.3-1.1,1-0.3,1.2c2.2,0.7,4.6,0.9,6.9,0.6
			c0.3,0,0.6-0.3,0.6-0.6C135.5,139.6,135.2,139.2,134.9,139.3L134.9,139.3z"/>
	</g>
</g>
<g>
	<g>
		<path class="st4" d="M103.2,271c-1.4,0.4-2.2,1.6-3.1,2.7c-1,1.3-2.1,2.6-3.1,3.9c-0.2,0.3-0.3,0.6,0,0.9c0.2,0.2,0.7,0.3,0.9,0
			c1-1.2,2-2.5,3-3.7c0.7-0.9,1.5-2.2,2.7-2.6C104.3,271.9,104,270.7,103.2,271L103.2,271z"/>
	</g>
</g>
<g>
	<g>
		<path class="st4" d="M104.5,272.7c-1.1,1.2-2,2.4-2.9,3.7c-0.2,0.3-0.1,0.7,0.2,0.9c0.3,0.2,0.7,0.1,0.9-0.2
			c0.9-1.2,1.7-2.3,2.7-3.4c0.2-0.2,0.3-0.6,0-0.9C105.1,272.4,104.7,272.4,104.5,272.7L104.5,272.7z"/>
	</g>
</g>
<g>
	<g>
		<path class="st4" d="M93.2,299.7c-0.5-4.5,0.3-9,2.3-13c0.4-0.7-0.7-1.4-1.1-0.6c-2.1,4.2-3,9-2.5,13.6
			C92.1,300.5,93.3,300.5,93.2,299.7L93.2,299.7z"/>
	</g>
</g>
<g>
	<g>
		<path class="st4" d="M205,265.5c-0.3,2.5-0.6,5-0.7,7.5c-0.1,0.8,1.2,0.8,1.2,0c0.2-2.5,0.4-5,0.7-7.5c0-0.3-0.3-0.6-0.6-0.6
			C205.3,264.9,205.1,265.2,205,265.5L205,265.5z"/>
	</g>
</g>
<g>
	<g>
		<path class="st4" d="M208.3,263.3c-0.3,2-0.5,4-0.4,6c0,0.8,1.3,0.8,1.2,0c0-1.9,0.1-3.8,0.4-5.6c0.1-0.3-0.1-0.7-0.4-0.8
			C208.8,262.8,208.4,263,208.3,263.3L208.3,263.3z"/>
	</g>
</g>
<g>
	<g>
		<path class="st4" d="M201.9,267c-0.2,1.3-0.4,2.6-0.7,3.8c-0.1,0.3,0.1,0.7,0.4,0.8c0.3,0.1,0.7-0.1,0.8-0.4
			c0.3-1.4,0.6-2.8,0.7-4.2c0-0.3-0.3-0.6-0.6-0.6C202.2,266.4,201.9,266.6,201.9,267L201.9,267z"/>
	</g>
</g>
<g>
	<g>
		<path class="st4" d="M218,298.7c-5.6-3.8-9.9-9.4-12.1-15.7c-0.3-0.8-1.5-0.4-1.2,0.3c2.3,6.7,6.8,12.5,12.7,16.5
			C218,300.3,218.7,299.2,218,298.7L218,298.7z"/>
	</g>
</g>
<g>
	<g>
		<path class="st4" d="M318.5,383c-3.9,0.5-7.8,0.3-11.6-0.8c-3.6-1.1-7-2.9-10.3-4.7c-6.1-3.3-12.6-7.6-14.5-14.7
			c-0.2-0.8-1.4-0.4-1.2,0.3c2,7.3,8.4,11.8,14.7,15.3c3.5,1.9,7,3.8,10.8,4.9c3.9,1.2,8.1,1.5,12.1,1
			C319.3,384.1,319.3,382.9,318.5,383L318.5,383z"/>
	</g>
</g>
<g>
	<g>
		<path class="st4" d="M246.1,300.6c-2.8,5.9-4.1,12.3-4,18.8c0,0.8,1.3,0.8,1.2,0c-0.1-6.3,1.2-12.5,3.8-18.2
			C247.5,300.5,246.4,299.8,246.1,300.6L246.1,300.6z"/>
	</g>
</g>
<g>
	<g>
		<path class="st4" d="M240.8,303.5c-0.3,4.3-1.8,8.5-1.6,12.9c0,0.8,1.3,0.8,1.2,0c-0.2-4.4,1.3-8.5,1.6-12.9
			C242.2,302.7,240.9,302.7,240.8,303.5L240.8,303.5z"/>
	</g>
</g>
<g>
	<g>
		<path class="st4" d="M338.1,166.9c-2.2,9.8-3,19.8-2.4,29.8c0,0.8,1.3,0.8,1.2,0c-0.6-9.9,0.2-19.8,2.4-29.5
			C339.5,166.4,338.3,166.1,338.1,166.9L338.1,166.9z"/>
	</g>
</g>
<g>
	<g>
		<path class="st4" d="M239.6,205.1c3.8-3.1,8.1-5.6,12.6-7.5c0.7-0.3,0.1-1.4-0.6-1.1c-4.6,2-8.9,4.6-12.8,7.7
			C238.1,204.7,239,205.6,239.6,205.1L239.6,205.1z"/>
	</g>
</g>
<g>
	<g>
		<path class="st4" d="M245.8,180.9c5.4-5.2,11.4-9.7,17.9-13.5c0.7-0.4,0.1-1.5-0.6-1.1c-6.6,3.8-12.7,8.4-18.2,13.7
			C244.4,180.6,245.3,181.5,245.8,180.9L245.8,180.9z"/>
	</g>
</g>
<g>
	<g>
		<path class="st4" d="M250.2,172.5c2.6-2.2,5.4-4.1,8.2-5.8c0.7-0.4,0.1-1.5-0.6-1.1c-3,1.8-5.8,3.8-8.5,6
			C248.6,172.1,249.5,173,250.2,172.5L250.2,172.5z"/>
	</g>
</g>
<g>
	<g>
		<path class="st4" d="M279.9,15.4c-8.2,10.2-9.2,23.6-10,36.2c0,0.8,1.2,0.8,1.2,0c0.7-12.2,1.6-25.4,9.6-35.3
			C281.3,15.6,280.4,14.7,279.9,15.4L279.9,15.4z"/>
	</g>
</g>
<g>
	<g>
		<path class="st4" d="M280.9,19.3c-4.1,6.2-6.4,13.4-6.6,20.8c0,0.8,1.2,0.8,1.2,0C275.8,33,278.1,26,282,20
			C282.5,19.3,281.4,18.7,280.9,19.3L280.9,19.3z"/>
	</g>
</g>
<g>
	<g>
		<path class="st4" d="M282,24.3c-2.7,4.1-4.1,8.9-4,13.8c0,0.8,1.3,0.8,1.2,0c-0.1-4.7,1.3-9.3,3.8-13.2
			C283.5,24.3,282.5,23.7,282,24.3L282,24.3z"/>
	</g>
</g>
<g>
	<g>
		<path class="st0" d="M297,365.1c-2.5-3.7-4.4-7.7-5.5-12c-0.2-0.8-1.4-0.4-1.2,0.3c1.2,4.4,3.1,8.5,5.6,12.3
			C296.4,366.4,297.5,365.8,297,365.1L297,365.1z"/>
	</g>
</g>
<g>
	<g>
		<path class="st0" d="M269.7,306.3c1.1,3.4,2.6,6.6,4.5,9.6c0.4,0.7,1.5,0.1,1.1-0.6c-1.8-2.9-3.3-6-4.4-9.3
			C270.6,305.2,269.4,305.6,269.7,306.3L269.7,306.3z"/>
	</g>
</g>
<g>
	<g>
		<path class="st0" d="M290.5,349.1c-1.6-4.9-3.6-9.7-5.9-14.3c-0.4-0.7-1.4-0.1-1.1,0.6c2.3,4.5,4.2,9.2,5.8,14
			C289.5,350.2,290.7,349.8,290.5,349.1L290.5,349.1z"/>
	</g>
</g>
</svg>
