<?xml version="1.0" encoding="utf-8"?>
<!-- Generator: Adobe Illustrator 26.3.1, SVG Export Plug-In . SVG Version: 6.00 Build 0)  -->
<svg version="1.1" id="Layer_1" xmlns="http://www.w3.org/2000/svg" xmlns:xlink="http://www.w3.org/1999/xlink" x="0px" y="0px"
	 viewBox="0 0 300 230" style="enable-background:new 0 0 300 230;" xml:space="preserve">
<style type="text/css">
	.st0{fill:#C0E1BF;}
	.st1{fill:#FCE59C;}
	.st2{fill:#515251;}
	.st3{fill:#C0E1BF;stroke:#C0E1BF;stroke-width:0.25;stroke-miterlimit:10;}
	.st4{fill:#FFFFFF;}
	.st5{fill-rule:evenodd;clip-rule:evenodd;fill:none;stroke:#C0E1BF;stroke-width:0.75;stroke-miterlimit:10;}
	.st6{fill-rule:evenodd;clip-rule:evenodd;fill:#C0E1BF;}
	.st7{fill-rule:evenodd;clip-rule:evenodd;fill:#C77890;}
	.st8{fill-rule:evenodd;clip-rule:evenodd;fill:#7E246B;}
	.st9{fill-rule:evenodd;clip-rule:evenodd;fill:#FCE59C;}
	.st10{fill:#7E246B;}
	.st11{fill:#C77890;}
</style>
<g>
	<g>
		<path class="st0" d="M279.7,187.8c-10.9-13.6-27.7-19.6-43.9-24.3c-8.5-2.5-17.1-4.7-25.5-7.7c-9.4-3.3-18.2-7.8-26.4-13.5
			c-17.3-11.9-31.7-27.4-47.4-41.2c-15.6-13.6-32.1-26.3-50-36.8C69,54.1,50.1,46,30.2,42c-2.4-0.5-4.9-0.9-7.3-1.3
			c-0.8-0.1-1.1,1.1-0.3,1.2C42.7,44.9,62,52.2,79.8,62c18.2,10,35,22.4,50.8,35.8c15.7,13.4,30,28.6,46.4,41.1
			c8.1,6.2,16.7,11.6,26.1,15.5c8.1,3.4,16.5,5.8,25,8.2c16.3,4.6,34,9.2,46.5,21.4c1.5,1.5,2.9,3,4.2,4.7
			C279.3,189.3,280.2,188.5,279.7,187.8L279.7,187.8z"/>
	</g>
</g>
<g>
	<g>
		<path class="st0" d="M126.4,92.9c-6.5-5.2-13.8-9.1-22.2-9.2c-3.2,0-6.4,0.4-9.6,0.7c-3.6,0.4-7.2,0.5-10.9,0
			c-9.8-1.1-18.4-5.6-27.2-9.7C52.8,73,49,71.8,46,69.1c-2.9-2.6-5.2-5.7-7.5-8.8c-2.7-3.7-5.1-7.5-7.9-11.1c-2.2-3-4.6-6-7.7-8.2
			c-0.7-0.5-1.3,0.6-0.6,1.1c2.8,2,5,4.8,7,7.5c2.4,3.2,4.6,6.6,7,9.9c2.2,3.1,4.5,6.2,7.1,9c1.1,1.2,2.3,2.3,3.7,3.2
			c1.5,1.1,3.1,1.7,4.8,2.4c8.7,3.8,16.9,8.6,26.2,10.7c4.1,0.9,8.4,1.4,12.6,1.2c3.2-0.1,6.4-0.6,9.6-0.9c3.7-0.3,7.4-0.2,11,0.8
			c5.3,1.5,9.9,4.5,14.1,7.8C126.2,94.3,127.1,93.4,126.4,92.9L126.4,92.9z"/>
	</g>
</g>
<g>
	<g>
		<path class="st0" d="M214.1,157.2c-0.9-0.7-1.2-1.9-1.3-3c-0.1-1.8,0.1-3.7,0.2-5.5c0.6-5.7,1.3-11.3,1.4-17.1
			c0.1-7.9-0.8-16-3.1-23.5c-2-6.6-5.4-12.7-8.6-18.7c-3.4-6.5-6.2-13-7.5-20.2c-1.1-5.7-4.1-10.8-8.2-14.9
			c-8.9-9-21.3-14-32.8-18.9c-7.7-3.3-16.1-3.6-23.9-6.2c-7.3-2.4-13.9-7.2-18.9-13.1c-1.2-1.4-2.3-2.9-3.3-4.5
			c-0.4-0.7-1.5-0.1-1.1,0.6c3.8,6.3,9.7,11.5,16.1,15.1c7.1,4,15,4.9,22.8,6.7c6.9,1.6,13.4,4.7,19.8,7.8c5.8,2.8,11.6,5.9,16.7,10
			c4.7,3.8,8.9,8.5,10.8,14.3c1.1,3.3,1.4,6.8,2.5,10.1c1,3.3,2.4,6.6,3.9,9.7c3,6.2,6.7,12.1,9.2,18.5c2.9,7.6,4.2,15.8,4.4,23.8
			c0.2,6.1-0.4,12.2-1.1,18.2c-0.2,2.1-0.5,4.1-0.5,6.2c0,1.3,0.1,2.8,0.7,4c0.2,0.5,0.6,0.9,1,1.3
			C213.8,158.6,214.7,157.7,214.1,157.2L214.1,157.2z"/>
	</g>
</g>
<g>
	<g>
		<path class="st0" d="M106.7,12.1c10.4,22.8,28.3,40.8,46,57.8c4.7,4.5,9.7,8.9,11.8,15.2c1.8,5.1,2.5,10.6,3.7,15.8
			c2.2,9.5,4.6,19.1,8.6,28.1c3.9,8.9,9.8,18,19,22c0.7,0.3,1.4-0.8,0.6-1.1c-8.4-3.7-13.8-11.5-17.6-19.5c-4.2-8.8-6.8-18.4-9-27.9
			c-1.2-5.1-2.1-10.2-3.4-15.2c-0.8-2.9-1.9-5.7-3.6-8.2c-1.7-2.5-3.8-4.7-6-6.8c-8.8-8.6-17.8-17.1-26-26.4
			c-9.2-10.4-17.4-21.8-23.2-34.5C107.4,10.8,106.3,11.4,106.7,12.1L106.7,12.1z"/>
	</g>
</g>
<g>
	<g>
		<path class="st0" d="M166.8,130.3c-10.9-5.4-23.9-9.1-35.8-4.9c-5.8,2-11.2,5.3-17,7.4c-2.9,1-5.9,1.8-8.9,1.9
			c-3.2,0.2-6.3,0.5-9.5,0.9c-3.3,0.4-6.5,0.8-9.8,1.1c-2.9,0.3-5.8,0.3-8.7,0.5c-5.3,0.3-10.9,0.9-15.8,3c-1.5,0.7-2.9,1.7-4.4,2.3
			c-1.2,0.5-2.5,0.8-3.8,1c-3.6,0.7-7.3,1-11,1c-4.3,0.1-8.7-0.2-12.9-1.2c-2.7-0.6-6.7-1.7-7.7-4.6c-0.3-0.7-1.5-0.4-1.2,0.3
			c0.9,2.5,3.4,3.8,5.8,4.7c3.4,1.2,7,1.7,10.6,1.9c4,0.3,8.1,0.2,12-0.2c2.9-0.3,6-0.7,8.7-1.8c1.6-0.7,3-1.7,4.6-2.4
			c2.7-1.1,5.6-1.8,8.4-2.2c5.8-0.9,11.7-0.7,17.5-1.3c3.3-0.3,6.5-0.7,9.8-1.1c3.1-0.3,6.2-0.4,9.3-0.8c6.1-0.8,11.8-3.5,17.3-6.1
			c3.2-1.5,6.4-3.1,9.9-3.9c3.5-0.8,7.2-1,10.8-0.8c7.4,0.6,14.6,3.2,21.2,6.4C166.9,131.8,167.5,130.7,166.8,130.3L166.8,130.3z"/>
	</g>
</g>
<g>
	<g>
		<path class="st0" d="M21.5,139.2c1.7-3.8,4.4-7.1,7.1-10.2c3.4-3.8,7-7.3,10.9-10.7c3.7-3.3,7.5-6.4,11.6-9.2
			c4.2-2.9,8.4-5.4,13.4-6.8c6.6-1.8,13.7-2.3,20.5-2c3.6,0.1,7.2,0.5,10.7,1.1c3.4,0.6,6.8,1.5,10.3,2.1c3.3,0.6,6.4,0.6,9.7,0
			c3.5-0.6,6.9-1.6,10.4-0.5c2.7,0.9,5,2.7,7.4,4.3c1.9,1.3,3.8,2.6,5.7,3.9c9.4,6.6,18.6,13.4,28.1,19.8c0.7,0.5,1.3-0.6,0.6-1.1
			c-8.7-5.9-17.2-12.1-25.8-18.2c-4.1-2.9-8.1-6-12.4-8.5c-2.7-1.6-5.5-2.3-8.6-2c-3.6,0.4-7,1.5-10.6,1.4
			c-3.7-0.1-7.2-1.1-10.8-1.9c-3.4-0.7-6.8-1.3-10.3-1.6c-6.9-0.6-14-0.4-20.8,0.8c-5.6,1-10.7,3-15.4,6.1
			c-3.9,2.6-7.6,5.4-11.2,8.4c-4.6,3.8-8.9,7.8-13,12.2c-3.2,3.5-6.4,7.3-8.4,11.7C20.1,139.3,21.2,139.9,21.5,139.2L21.5,139.2z"/>
	</g>
</g>
<g>
	<g>
		<path class="st0" d="M213.3,157.1c-3,2-6.6,2.7-10.1,3c-4.2,0.4-8.5,0.3-12.7,0.2c-10-0.1-19.7,0.8-29.5,2.6
			c-10.1,1.9-20.1,4.4-30.1,6.7c-4.9,1.1-9.9,2.2-14.9,3.1c-5.1,0.9-10,2.2-15.1,3.3c-2.9,0.6-5.8,0.8-8.7,1.2
			c-2.6,0.3-5.1,0.9-7.6,1.5c-5.3,1.2-10.7,2.4-16.1,0.6c-0.8-0.3-1.1,0.9-0.3,1.2c4.4,1.5,9,1.1,13.5,0.1c2.4-0.5,4.7-1.1,7.1-1.6
			c2.6-0.5,5.2-0.7,7.8-1c5.1-0.6,10.1-2.1,15.1-3.2c5-1.1,10.1-1.8,15.1-2.9c10.2-2.2,20.3-4.9,30.5-6.9
			c10.2-2.1,20.4-3.3,30.9-3.3c4.9,0,9.8,0.2,14.7-0.2c3.9-0.3,7.8-1.1,11.1-3.2C214.6,157.7,214,156.6,213.3,157.1L213.3,157.1z"/>
	</g>
</g>
<g>
	<g>
		<path class="st0" d="M67.9,180.3c9.3,9.3,17.7,20,29,27c5.3,3.3,11.2,5.4,17.4,6c8.2,0.8,16.6-0.8,24.8-0.9
			c4.4-0.1,8.7,0.4,13,1.3c2.1,0.4,4.3,0.1,6.4-0.4c5.5-1.1,10.7-3.2,16.1-4.5c2.6-0.6,5.2-0.5,7.8-1.4c3.1-1.1,5.8-2.8,8.2-4.9
			c2.7-2.3,5-4.9,7.1-7.7c1.9-2.4,3.6-4.8,4.8-7.7c2.1-5,2.4-10.4,3.2-15.7c0.7-4.5,2-9,6.4-11.1c1.3-0.6,2.7-1,4.2-1.3
			c0.8-0.1,0.5-1.4-0.3-1.2c-4.7,0.9-8.5,3.3-10.2,7.9c-1.7,4.5-1.6,9.5-2.5,14.2c-0.5,2.8-1.3,5.5-2.5,8.1c-1.5,3-3.6,5.7-5.8,8.2
			c-4.3,5.1-9.9,10.3-16.9,10.9c-5.1,0.5-9.9,2.3-14.7,3.7c-2.6,0.7-5.2,1.5-7.8,1.8c-2.9,0.3-5.7-0.7-8.6-1c-8.5-1-17,0.3-25.6,0.6
			c-6.8,0.3-13.4-0.6-19.6-3.6c-11.8-5.7-20.5-16.2-29.3-25.4c-1.2-1.2-2.4-2.5-3.6-3.7C68.2,178.8,67.4,179.7,67.9,180.3
			L67.9,180.3z"/>
	</g>
</g>
<g>
	<path class="st0" d="M182.5,142.2c-10.4-5.7-25.1,0.6-35.8,5.6c-10.7,5-22.4,10.9-33.8,7.9c8.2-2.2,12.9-10.6,19.4-15.9
		c8.3-6.8,26.6-10.4,35.1-9.3"/>
	<g>
		<path class="st0" d="M182.9,141.7c-7.8-4.2-17.2-2-25,0.8c-9.3,3.4-17.8,8.5-27.2,11.5c-5.7,1.8-11.7,2.6-17.5,1.2
			c0,0.4,0,0.8,0,1.2c8.7-2.4,13.2-10.9,19.8-16.2c3-2.4,6.7-4.1,10.4-5.4c4-1.4,8.1-2.4,12.2-3.1c3.9-0.6,8-1,12-0.5
			c0.8,0.1,0.8-1.1,0-1.2c-3.4-0.4-6.9-0.2-10.3,0.3c-4.1,0.5-8.3,1.5-12.2,2.7c-3.8,1.2-7.5,2.7-10.8,4.9c-3.5,2.3-6.3,5.5-9.1,8.5
			c-3.5,3.7-7.2,7.5-12.2,8.8c-0.6,0.2-0.6,1.1,0,1.2c9.9,2.4,19.6-1.3,28.5-5.3c8.5-3.9,17-8.4,26.4-10c4.9-0.8,10.1-0.7,14.6,1.7
			C182.9,143.1,183.6,142,182.9,141.7L182.9,141.7z"/>
	</g>
</g>
<g>
	<path class="st0" d="M123.4,91c-13.1-8.4-15.2-28.9-25.7-40.4C89,41.2,76.4,35.8,68.8,25.5c4.2,19.3,34.7,50.8,50.2,63"/>
	<g>
		<path class="st0" d="M123.8,90.4c-9-5.9-12.7-17-17-26.3c-2.2-4.7-4.6-9.3-7.9-13.2c-3.9-4.6-8.9-8.1-13.7-11.7
			c-5.7-4.2-11.5-8.4-15.8-14c-0.4-0.5-1.3-0.3-1.1,0.5c1,4.4,2.9,8.6,5.1,12.5C76,43,79.2,47.6,82.6,52
			c7.2,9.4,15.3,18.2,23.9,26.4c3.9,3.7,7.9,7.3,12.1,10.6c0.6,0.5,1.5-0.4,0.9-0.9c-8-6.3-15.4-13.5-22.3-20.9
			c-8-8.5-15.6-17.6-21.6-27.6c-2.6-4.4-5-9.1-6.1-14.1c-0.4,0.2-0.8,0.3-1.1,0.5c7.6,10.1,19.6,15.4,28.2,24.4
			c7.7,7.9,10.6,19,15.8,28.5c2.7,5,6.1,9.7,10.9,12.9C123.8,92,124.4,90.9,123.8,90.4L123.8,90.4z"/>
	</g>
</g>
<g>
	<g>
		<path class="st0" d="M174.4,136.5c-9.7-3.1-19.4,1.3-27.7,6.1c-0.7,0.4-0.1,1.5,0.6,1.1c8-4.6,17.3-9,26.7-6
			C174.8,138,175.2,136.8,174.4,136.5L174.4,136.5z"/>
	</g>
</g>
<g>
	<g>
		<path class="st0" d="M147.3,142.1c-0.1,0.1-0.1,0.1-0.2,0.1C147.2,142.2,147.2,142.2,147.3,142.1c-0.3,0.2-0.5,0.4-0.8,0.5
			c0,0,0.1,0,0.1-0.1c-0.2,0.1-0.5,0.2-0.8,0.2c-0.1,0-0.3,0.2-0.4,0.3c-0.1,0.1-0.1,0.3-0.1,0.5c0,0.2,0.1,0.3,0.3,0.4
			c0.2,0.1,0.3,0.1,0.5,0.1c0.7-0.1,1.4-0.5,2-1c0.2-0.2,0.2-0.7,0-0.9C147.9,141.9,147.6,141.9,147.3,142.1L147.3,142.1z"/>
	</g>
</g>
<g>
	<g>
		<path class="st0" d="M143.1,143.8c-3,1.4-5.9,2.9-8.9,4.3c-0.7,0.4-0.1,1.4,0.6,1.1c3-1.4,5.9-2.9,8.9-4.3
			C144.5,144.6,143.8,143.5,143.1,143.8L143.1,143.8z"/>
	</g>
</g>
<g>
	<g>
		<path class="st0" d="M109.7,74.6c-1.9-1.4-3.5-3.1-5-4.9c-1.6-1.9-3.1-3.7-4.6-5.6c-3.1-3.9-6.2-7.8-9.1-11.8
			c-0.5-0.6-1.6,0-1.1,0.6c3,4.1,6.1,8.1,9.3,12.1c3,3.7,6,8,9.9,10.8C109.8,76.1,110.4,75,109.7,74.6L109.7,74.6z"/>
	</g>
</g>
<g>
	<g>
		<path class="st0" d="M234.1,209.9c0.8,0,0.8-1.2,0-1.2C233.3,208.6,233.3,209.9,234.1,209.9L234.1,209.9z"/>
	</g>
</g>
<path class="st0" d="M201.9,149.2c0,0,0.6-18.8-1.4-24.3c-2.1-5.6-4.1-27.8-6.3-39.4s-26.4-38.7-20.8-30.8c4.9,7,3.2,31.9,2.1,47.9
	S186.4,141.9,201.9,149.2z"/>
<path class="st0" d="M197.4,114.8c0,0-2.6-9.4-4.2-15.8c-1.6-6.4-3.7-13.1-5.1-18.7c-1.4-5.6,0.2-7.5,3.1-1.6
	c2.8,5.9,8.3,14.2,10.9,21.4c2.6,7.2,9.9,18.3,9.4,29s-5.8,5.8-7-2.2S197.4,114.8,197.4,114.8z"/>
<path class="st0" d="M200.4,170.3l-5.5,17.3c0,0-3,11.2-15.6,14.6c-15.6,4.3-24.2,6.1-42,5.3c-17.8-0.7-27.4,1.6-33.5-2.5
	c-6.1-4.1-12.8-8.7,5.7-5.8s28.7-3.2,36.6-4.3c7.9-1.1,4.3,0.7,18.8-3.2S200.4,170.3,200.4,170.3z"/>
<path class="st0" d="M123.4,201.7c0,0-17.8,1.4-23.5-0.3c-5.3-1.6-21.5-17.2-15.4-17.2s20.6-3.6,25.7-4.1
	c5.1-0.5,24.3,13.2,50.4,11.1C194.9,188.4,132.7,201.7,123.4,201.7z"/>
<path class="st1" d="M205.5,150.5c0,0-1.4-0.5-1.7-4.8s-0.3-16,0.1-13.2s6.4,5.1,5,16.7C208.5,152.1,205.5,150.5,205.5,150.5z"/>
<path class="st1" d="M200.4,165.5c0,0-4.8-1.1-16.6-0.5c-11.8,0.6-19.9,1.5-25.7,3.4c-5.8,1.9-1.6,1.2,1.7,3.1
	c3.3,1.9,5.2,0.3,10.8,0.1c5.7-0.1,5.7-2.4,15.2-3.2C195.4,167.7,200.4,165.5,200.4,165.5z"/>
<path class="st0" d="M149.6,171.2c0,0-22.9,4.6-28.3,5.7c-5.4,1-0.1,3.6,0,4c0.1,0.5,20.8,7,30.4,6.8c9.6-0.2,27.7-5.8,31.9-8.2
	c4.2-2.4,10.6-5.7,7-6.4c-3.6-0.8-4.5-0.9-8.2-0.9s-12.2,1.9-14.8,2.2c-2.6,0.3-11-0.8-13-1.2C152.4,172.5,151.2,170.8,149.6,171.2z
	"/>
<path class="st0" d="M147.1,118.4c0,0-18.4-12.9-22.5-12.9s-9.7,1.1-14.9,0.9s-20-4.4-29.5-3.6c-9.5,0.8-15.4,1.1-24.1,6.2
	s-23.2,19.1-23.2,19.1s-7.2,6.4-6.3,9.4s15,0.2,21.1-0.4c6-0.6,28.2-13.4,41.6-13.4s32.7-2.5,41-2.3
	C138.6,121.6,147.1,118.4,147.1,118.4z"/>
<path class="st1" d="M121.1,127.8c0,0-9.3,4-25,5.7s-22.8,0-22.8,0s13.1-4.6,21.5-4.3C103.3,129.4,121.1,127.8,121.1,127.8z"/>
<path class="st0" d="M124.4,123.3c0,0-1.2,0.5-5.5,0.5s-13,0.6-13,0.6s-3.9,2.5,1.6,2.6c5.6,0.1,16.7-0.7,19.2-1.8
	c2.5-1.1,1.7-1.8,1.7-1.8H124.4z"/>
<path class="st1" d="M97.2,125.6c0,0-10.1-0.2-16.9,1.3c-6.8,1.5-15.9,6.2-15.9,6.2l-7.1,3.6c0,0-4.6,2.3-6.4,2.1
	c-1.8-0.2-10.5,1.5-10.5,1.5s0.3,1.4,6.9,1.1c6.6-0.4,12.6-3,12.6-3l7.9-3.7c0,0,7.8-3.7,9.9-4.4C79.9,129.6,97.2,125.6,97.2,125.6z
	"/>
<path class="st0" d="M119,27.4c0,0,17,21.1,26.6,29.5c9.6,8.4,10.7,12.3,9.9,6.9c-0.8-5.4-5-11.1-1.5-12.6c3.6-1.5,15.9,4.9,15.9,2
	s-1.4-8.6-10.3-11.6s-11.6-5.7-20.3-7C130.5,33.2,122.2,29.2,119,27.4z"/>
<path class="st0" d="M164.3,43.8c0,0,17.7,8.1,20.7,14.5s6.1,11.7,8.2,18.1c3.8,11.8,9.2,21,11.6,25c0.9,1.5,3.8,8.7,4.2,10.4
	l2.1,12.6L176.4,86c0,0-4.7-28.6-10-33.5S164.3,43.8,164.3,43.8z"/>
<path class="st0" d="M152.7,63.8c0,0,6.6,6.5,10.7,12.1c4.1,5.7,5.4,7.5,6.5,16.3c1.1,8.8,6.5,21.1,6.5,21.1l9.2-16.3L179,73
	l-12.5-23l-14.8-1.9l-0.7,6.7L152.7,63.8z"/>
<g>
	<g>
		<path class="st0" d="M101.3,80.1c-9,0.6-18.3,1.1-26.9-2.1c-0.8-0.3-1.1,0.9-0.3,1.2c8.7,3.3,18.1,2.7,27.2,2.2
			C102.1,81.3,102.1,80,101.3,80.1L101.3,80.1z"/>
	</g>
</g>
<g>
	<g>
		<path class="st0" d="M100.8,79.8c-6.6,0.1-13.1-1.5-18.9-4.6c-0.7-0.4-1.3,0.7-0.6,1.1c6,3.2,12.7,4.8,19.5,4.7
			C101.6,81.1,101.6,79.8,100.8,79.8L100.8,79.8z"/>
	</g>
</g>
<g>
	<g>
		<path class="st0" d="M102.6,80c-3.9-1.7-7.6-3.6-11.2-5.9c-0.7-0.4-1.3,0.7-0.6,1.1c3.6,2.2,7.3,4.2,11.2,5.9
			C102.7,81.4,103.3,80.3,102.6,80L102.6,80z"/>
	</g>
</g>
<g>
	<path class="st0" d="M36.5,47.1c2.6,0.7,5.1,1.6,7.6,2.5c2.6,1,5.5,2.5,6.1,5.2c0.5,2.6-1.4,5.3-0.8,8c0.2,0.9,0.5,2-0.2,2.4
		c-0.2,0.1-0.4,0.1-0.5,0.1c-1,0-1.8-0.6-2.4-1.3c-0.6-0.8-1-1.6-1.5-2.4c-1.4-2.1-3.6-3.6-5.3-5.5c-1.6-1.8-2.2-4.4-3.9-6.2
		c-0.9-0.9-3.5-3-3.4-3.6C32.2,45.8,35.4,46.7,36.5,47.1"/>
	<g>
		<path class="st0" d="M36.3,47.7c2.2,0.6,4.4,1.3,6.5,2.1c1.7,0.6,3.5,1.3,5,2.5c1.6,1.3,2,3,1.6,5c-0.4,1.8-1.1,3.5-0.8,5.4
			c0.1,0.8,0.7,2.5-0.8,1.9c-1.1-0.4-1.7-1.5-2.2-2.4c-1-1.7-2.2-3-3.7-4.3c-1.4-1.3-2.7-2.6-3.7-4.3c-0.8-1.5-1.5-3.1-2.7-4.3
			c-0.6-0.6-1.2-1.1-1.8-1.6c-0.3-0.2-0.5-0.5-0.8-0.8c-0.1-0.1-0.4-0.5-0.4-0.5c-0.1,0.2-0.2,0.3-0.2,0.5c0.1,0,0.2,0,0.3,0
			c0.1,0.1,0.4,0,0.6,0.1c0.4,0.1,0.7,0.1,1.1,0.2C35,47.3,35.6,47.5,36.3,47.7c0.8,0.3,1.1-0.9,0.3-1.2c-1.3-0.5-3-1.1-4.4-0.9
			c-1.6,0.2-0.6,1.7,0,2.3c1.4,1.4,2.9,2.5,3.9,4.2c0.5,0.9,0.9,1.9,1.5,2.9c0.6,1,1.3,1.8,2.2,2.6c0.8,0.8,1.7,1.5,2.5,2.3
			c1,1,1.8,2.1,2.5,3.4c0.8,1.4,2.9,3.7,4.7,2.4c0.6-0.5,0.7-1.3,0.6-2c-0.1-0.6-0.3-1.1-0.3-1.7c0-0.7,0.1-1.5,0.3-2.2
			c0.5-2.1,1.2-4.2,0.2-6.2c-0.9-2-3-3.2-5-4.1c-2.8-1.2-5.8-2.1-8.7-3C35.9,46.3,35.5,47.5,36.3,47.7L36.3,47.7z"/>
	</g>
</g>
<g>
	<path class="st0" d="M38.8,55c2.2,3.2,4.3,7.1,7.1,9.9c2.7,2.6,5.8,4.9,9.1,6.6c0.8,0.4,1.9,0.7,2.4,0c0.3-0.4,0.2-1-0.1-1.4
		c-0.3-0.4-0.7-0.7-1.1-1c-1.9-1.5-3.4-3.7-4-6.1c-0.5-1.8-0.5-3.7-0.9-5.6c-0.4-1.8-1.2-3.7-2.8-4.7"/>
	<g>
		<path class="st0" d="M38.2,55.3c1.9,2.8,3.6,5.8,5.7,8.4c2.2,2.7,5.1,5,8.1,6.8c1.2,0.8,2.8,2,4.3,2c1.3,0,2.1-1.1,1.7-2.3
			c-0.2-0.6-0.7-1.1-1.2-1.5c-0.7-0.6-1.4-1.2-1.9-1.9c-1.1-1.4-1.9-3-2.3-4.7c-0.8-3.6-0.4-7.9-3.9-10.2c-0.7-0.4-1.3,0.6-0.6,1.1
			c2.6,1.7,2.6,5.3,3,8c0.4,2.8,1.5,5.4,3.5,7.4c0.5,0.5,1,0.8,1.5,1.3c0.2,0.2,0.6,0.5,0.7,0.9c0.1,0.8-0.6,0.6-1,0.5
			c-1.4-0.4-2.8-1.5-4-2.3c-2.5-1.7-5-3.6-6.9-6c-2.1-2.6-3.7-5.5-5.6-8.3C38.9,54,37.8,54.6,38.2,55.3L38.2,55.3z"/>
	</g>
</g>
<g>
	<path class="st1" d="M59.4,69.1c-2.3-1.5-3.3-2.6-4-4.5c-0.3-0.7-0.3-1.4-0.4-2.2c-0.1-0.6-0.1-1.3-0.2-1.9c-0.1-0.7,0-1.6,0.6-1.8
		c0.6-0.2,1.2,0.3,1.6,0.8c1,1.2,2.1,2.5,3.1,3.7c0.8,0.9,1.6,1.9,2,3.1c0.4,1.1,0.4,2.3,0.3,3.5c0,0.2-0.1,0.5-0.3,0.6
		c-0.1,0.1-0.3,0-0.4,0C60.8,70.2,60.1,69.7,59.4,69.1"/>
</g>
<g>
	<path class="st1" d="M68.2,76.5c-2.7,0.3-5.6-0.7-7.5-2.7c-0.3-0.3-0.6-0.6-0.7-1c-0.1-0.4,0-0.9,0.3-1.1c0.4-0.3,1-0.2,1.5,0
		c1.3,0.4,2.6,0.9,3.9,1.3c1.2,0.4,2.4,0.8,3.5,1.3c0.4,0.2,0.9,0.5,1,1c0.1,0.6-0.5,1.1-1.1,1.3c-0.7,0.2-1.6,0.2-2.3-0.1"/>
</g>
<g>
	<path class="st0" d="M62.1,60.2c-0.9-1-1.8-2.1-2.7-3.2c-0.3-0.5-0.7-0.9-0.8-1.5c0-0.2-0.1-0.4,0.1-0.5c0.1-0.1,0.2-0.1,0.2-0.1
		c0.7-0.2,1.5-0.1,2.1,0.2c0.7,0.3,1.2,0.8,1.8,1.2c3.6,2.7,7.6,4.9,11.5,7c1,0.5,2,1,2.9,1.7c0.5,0.4,1,0.8,1.2,1.4
		c0.3,0.7,0.1,1.6-0.5,2.2c-0.5,0.6-1.4,0.8-2.2,0.7"/>
	<g>
		<path class="st0" d="M62.5,59.7c-0.9-1-1.8-2-2.6-3.1c-0.2-0.2-0.5-0.6-0.6-0.9c-0.2-0.6,0.2-0.5,0.6-0.4c0.6,0.1,1.1,0.4,1.6,0.7
			c2,1.4,3.9,2.8,6,4.1c2.1,1.2,4.2,2.4,6.4,3.5c1.1,0.6,2.5,1.2,3.4,2.1c1.3,1.3,0,2.8-1.6,2.8c-0.8,0-0.8,1.2,0,1.2
			c1.4,0.1,2.8-0.6,3.2-1.9c0.5-1.4-0.2-2.5-1.3-3.4c-1.4-1.1-3.1-1.9-4.7-2.7c-1.6-0.9-3.2-1.7-4.8-2.7c-1.6-0.9-3.1-1.9-4.6-3
			c-1.2-0.9-2.4-2-3.9-2c-1.4,0-2.2,0.7-1.6,2c0.7,1.7,2.3,3.2,3.5,4.5C62.2,61.2,63,60.3,62.5,59.7L62.5,59.7z"/>
	</g>
</g>
<g>
	<path class="st0" d="M77.4,64.9c1.8,0.6,3.5,1.6,5,2.7c0.7,0.5,1.4,1.1,1.9,1.8c0.5,0.7,0.8,1.6,0.7,2.5c0,0.2-0.1,0.5-0.3,0.6
		c-0.2,0.1-0.4,0.2-0.6,0.2c-0.7,0.1-1.4,0.2-2.1,0.2c-0.7-0.1-1.4-0.4-2-0.7c-2-0.9-4-1.8-5.9-2.8"/>
	<g>
		<path class="st0" d="M77.2,65.5c1.6,0.6,3.1,1.4,4.6,2.4c1.2,0.8,2.8,2.2,2.6,3.8c-0.1,0.5-0.4,0.4-0.8,0.5
			c-0.4,0.1-0.8,0.1-1.3,0.1c-0.9-0.1-1.8-0.6-2.7-1c-1.7-0.8-3.5-1.6-5.2-2.4c-0.7-0.3-1.4,0.7-0.6,1.1c1.7,0.8,3.3,1.5,5,2.3
			c0.8,0.4,1.5,0.8,2.4,1c0.8,0.3,1.7,0.2,2.5,0.1c0.7-0.1,1.4-0.2,1.8-0.9c0.3-0.7,0.2-1.5,0-2.2c-0.5-1.5-1.7-2.6-3-3.5
			c-1.5-1.1-3.2-1.9-4.9-2.6C76.8,64,76.5,65.2,77.2,65.5L77.2,65.5z"/>
	</g>
</g>
<g>
	<path class="st0" d="M62.5,60.5c3,2.4,8.3,7,11.6,8.9l2-1.4l-4.8-2.7L62.5,60.5z"/>
	<g>
		<path class="st0" d="M62,61c3.8,3.1,7.5,6.5,11.8,9c0.2,0.1,0.5,0.1,0.6,0c0.7-0.5,1.3-0.9,2-1.4c0.4-0.3,0.4-0.8,0-1.1
			c-3.7-2.1-7.5-4.2-11.2-6.2c-0.8-0.4-1.6-0.9-2.4-1.3c-0.7-0.4-1.3,0.7-0.6,1.1c3.5,1.9,7,3.7,10.4,5.7c1.1,0.6,2.2,1.2,3.3,1.9
			c0-0.4,0-0.7,0-1.1c-0.7,0.5-1.3,0.9-2,1.4c0.2,0,0.4,0,0.6,0c-4.2-2.5-7.8-5.8-11.5-8.8C62.3,59.6,61.4,60.5,62,61z"/>
	</g>
</g>
<g>
	<g>
		<path class="st4" d="M146.2,119.5c-7.1-2.4-14.2-4.7-21.3-7.1c-0.8-0.3-1.1,1-0.3,1.2c7.1,2.4,14.2,4.7,21.3,7.1
			C146.7,121,147,119.8,146.2,119.5L146.2,119.5z"/>
	</g>
</g>
<g>
	<g>
		<path class="st4" d="M141.6,118.5c-6.3-0.5-12.6-1-19-1.5c-0.8-0.1-0.8,1.2,0,1.2c6.3,0.5,12.6,1,19,1.5
			C142.4,119.8,142.4,118.6,141.6,118.5L141.6,118.5z"/>
	</g>
</g>
<g>
	<g>
		<path class="st4" d="M25.1,139.5c3.5-4.1,7.5-7.8,12-10.8c0.7-0.5,0-1.5-0.6-1.1c-4.5,3.1-8.7,6.8-12.2,11
			C23.7,139.3,24.6,140.1,25.1,139.5L25.1,139.5z"/>
	</g>
</g>
<g>
	<g>
		<path class="st4" d="M29.8,140.2c1.8-2.7,4.1-5,6.7-6.9c0.3-0.2,0.4-0.5,0.2-0.9c-0.2-0.3-0.6-0.4-0.9-0.2c-2.8,2-5.2,4.5-7.1,7.3
			C28.3,140.3,29.4,140.9,29.8,140.2L29.8,140.2z"/>
	</g>
</g>
<g>
	<g>
		<path class="st4" d="M34.4,142.4c1.2-2.6,3-4.9,5.3-6.6c0.3-0.2,0.4-0.5,0.2-0.9c-0.2-0.3-0.6-0.4-0.9-0.2
			c-2.5,1.8-4.5,4.2-5.8,7.1c-0.1,0.3-0.1,0.7,0.2,0.9C33.9,142.8,34.3,142.7,34.4,142.4L34.4,142.4z"/>
	</g>
</g>
<g>
	<g>
		<path class="st4" d="M201.7,120.8c-0.9-2.2-1.8-4.4-3-6.4c-1.2-2.3-2.6-4.3-3.4-6.8c-1.5-5.1-2.4-10.4-3.6-15.6
			c-0.2-0.8-1.4-0.5-1.2,0.3c1.2,5.2,2.1,10.5,3.6,15.6c0.7,2.2,1.8,4.1,3,6.2c1.3,2.3,2.4,4.7,3.4,7.1
			C200.8,121.8,202,121.5,201.7,120.8L201.7,120.8z"/>
	</g>
</g>
<g>
	<g>
		<path class="st4" d="M197.4,111.7c-0.1-2.9-0.1-5.9,0.1-8.8c0-0.8-1.2-0.8-1.2,0c-0.1,2.9-0.2,5.9-0.1,8.8
			C196.2,112.5,197.4,112.5,197.4,111.7L197.4,111.7z"/>
	</g>
</g>
<g>
	<g>
		<path class="st4" d="M201.4,119.3c-0.2-2,0-4,0.5-6c0.2-0.8-1-1.1-1.2-0.3c-0.5,2-0.7,4.2-0.5,6.3c0,0.3,0.3,0.6,0.6,0.6
			C201,119.9,201.4,119.6,201.4,119.3L201.4,119.3z"/>
	</g>
</g>
<g>
	<g>
		<path class="st4" d="M204.3,127.1c-0.2-1.9-0.1-3.9,0.4-5.7c0.2-0.8-1-1.1-1.2-0.3c-0.5,2-0.6,4-0.4,6.1c0,0.3,0.3,0.6,0.6,0.6
			C204,127.7,204.3,127.4,204.3,127.1L204.3,127.1z"/>
	</g>
</g>
<g>
	<g>
		<path class="st4" d="M123.1,175.9c3.3,2.2,6.8,4.2,10.4,5.8c0.7,0.3,1.4-0.7,0.6-1.1c-3.6-1.6-7.1-3.6-10.4-5.8
			C123,174.3,122.4,175.4,123.1,175.9L123.1,175.9z"/>
	</g>
</g>
<g>
	<g>
		<path class="st4" d="M128.1,174.6c2.6,1.5,5.3,2.8,8.1,3.9c0.3,0.1,0.7-0.1,0.8-0.4c0.1-0.4-0.1-0.6-0.4-0.8
			c-2.7-1.1-5.3-2.4-7.8-3.8C128.1,173.1,127.4,174.2,128.1,174.6L128.1,174.6z"/>
	</g>
</g>
<g>
	<g>
		<path class="st4" d="M134.3,173.6c1.9,0.9,3.7,1.8,5.6,2.7c0.3,0.1,0.7,0.1,0.9-0.2c0.2-0.3,0.1-0.7-0.2-0.9
			c-1.9-0.9-3.7-1.8-5.6-2.7c-0.3-0.1-0.7-0.1-0.9,0.2C133.9,173.1,134,173.5,134.3,173.6L134.3,173.6z"/>
	</g>
</g>
<g>
	<g>
		<path class="st4" d="M132.6,208.7c-8.5-0.1-16.7-3.4-22.8-9.3c-0.6-0.6-1.5,0.3-0.9,0.9c6.4,6.1,14.9,9.6,23.7,9.7
			C133.4,209.9,133.4,208.7,132.6,208.7L132.6,208.7z"/>
	</g>
</g>
<g>
	<g>
		<path class="st4" d="M116.1,209.3c-4.3-2.3-8.6-4.7-11.9-8.3c-0.6-0.6-1.4,0.3-0.9,0.9c3.4,3.6,7.8,6.1,12.2,8.5
			C116.2,210.7,116.8,209.6,116.1,209.3L116.1,209.3z"/>
	</g>
</g>
<g>
	<g>
		<path class="st4" d="M199.4,169.8c-5.9,11.3-15.5,20.5-27.1,25.8c-0.7,0.3-0.1,1.4,0.6,1.1c11.8-5.4,21.6-14.7,27.6-26.2
			C200.9,169.7,199.8,169.1,199.4,169.8L199.4,169.8z"/>
	</g>
</g>
<g>
	<g>
		<path class="st4" d="M91.1,182.7c0.9,2.1,2.4,4,4.2,5.5c0.3,0.2,0.6,0.3,0.9,0c0.2-0.2,0.3-0.7,0-0.9c-1.7-1.4-3.1-3.2-4-5.3
			c-0.1-0.3-0.6-0.4-0.9-0.2C91,182,90.9,182.4,91.1,182.7L91.1,182.7z"/>
	</g>
</g>
<g>
	<g>
		<path class="st4" d="M97.7,181.9c2.4,3.6,5.2,6.8,8.5,9.6c0.6,0.5,1.5-0.4,0.9-0.9c-3.2-2.7-6-5.8-8.3-9.3
			C98.3,180.6,97.2,181.2,97.7,181.9L97.7,181.9z"/>
	</g>
</g>
<g>
	<g>
		<path class="st4" d="M102.2,181c0.8,1,1.5,2.1,2.3,3.1c0.2,0.3,0.6,0.4,0.9,0.2c0.3-0.2,0.4-0.6,0.2-0.9c-0.8-1-1.5-2.1-2.3-3.1
			c-0.2-0.3-0.6-0.4-0.9-0.2C102.2,180.3,102,180.8,102.2,181L102.2,181z"/>
	</g>
</g>
<g>
	<g>
		<path class="st4" d="M105.5,179.3c1.5,2,3.1,3.9,4.7,5.8c0.2,0.3,0.7,0.2,0.9,0c0.3-0.3,0.2-0.6,0-0.9c-1.6-1.8-3.1-3.6-4.5-5.5
			c-0.2-0.3-0.5-0.4-0.9-0.2C105.4,178.6,105.3,179,105.5,179.3L105.5,179.3z"/>
	</g>
</g>
<g>
	<g>
		<path class="st4" d="M110.9,156c11.6,0,23-4.8,31.1-13.2c0.6-0.6-0.3-1.5-0.9-0.9c-7.9,8.1-18.9,12.8-30.2,12.8
			C110.1,154.7,110.1,156,110.9,156L110.9,156z"/>
	</g>
</g>
<g>
	<g>
		<path class="st4" d="M115.9,151.8c4.1,0.6,7.9-1,11.5-2.7c0.7-0.3,0.1-1.4-0.6-1.1c-3.2,1.5-6.8,3.1-10.5,2.6
			C115.4,150.4,115.1,151.7,115.9,151.8L115.9,151.8z"/>
	</g>
</g>
<g>
	<g>
		<path class="st4" d="M68.5,23.1c3.4,11.1,12.9,18.5,20.7,26.5c0.6,0.6,1.4-0.3,0.9-0.9c-7.6-7.8-17-15-20.3-25.9
			C69.4,22,68.2,22.4,68.5,23.1L68.5,23.1z"/>
	</g>
</g>
<g>
	<g>
		<path class="st4" d="M118.5,27c8.8,7.3,18.2,13.8,28.1,19.6c0.7,0.4,1.3-0.7,0.6-1.1c-9.8-5.8-19.1-12.2-27.8-19.4
			C118.8,25.6,117.9,26.4,118.5,27L118.5,27z"/>
	</g>
</g>
<g>
	<g>
		<path class="st4" d="M130.7,32.1c5.8,3.8,11.9,7.2,18.1,10.2c0.7,0.3,1.4-0.7,0.6-1.1c-6.2-3-12.3-6.4-18.1-10.2
			C130.6,30.6,130,31.7,130.7,32.1L130.7,32.1z"/>
	</g>
</g>
<g>
	<g>
		<path class="st4" d="M85.9,182.9c1.9,4.4,4.7,8.4,8.2,11.7c0.6,0.6,1.5-0.3,0.9-0.9c-3.4-3.2-6.1-7.1-8-11.4
			C86.6,181.5,85.6,182.1,85.9,182.9L85.9,182.9z"/>
	</g>
</g>
<g>
	<g>
		<path class="st4" d="M199.7,171.8c-1.3,4.3-3.4,8.3-5.5,12.3c-1.9,3.5-3.9,7.1-7.1,9.6c-0.6,0.5,0.3,1.4,0.9,0.9
			c3.3-2.6,5.3-6.3,7.3-9.9c2.2-4.1,4.3-8.1,5.7-12.6C201.2,171.4,200,171,199.7,171.8L199.7,171.8z"/>
	</g>
</g>
<g>
	<g>
		<path class="st4" d="M198.4,171.2c-5.8,5.2-11.5,10.4-17.2,15.8c-0.6,0.6,0.3,1.4,0.9,0.9c5.7-5.3,11.4-10.6,17.2-15.8
			C199.9,171.6,199,170.7,198.4,171.2L198.4,171.2z"/>
	</g>
</g>
<g>
	<g>
		<path class="st1" d="M197.9,168c-2.4,0.5-4.8,1.1-7.1,1.8c-0.8,0.2-0.4,1.5,0.3,1.2c2.3-0.8,4.7-1.4,7.1-1.8
			C199,169.1,198.7,167.9,197.9,168L197.9,168z"/>
	</g>
</g>
<g>
	<g>
		<path class="st1" d="M200.9,167.8c0.8-0.1,1.6-0.4,2.2-1c0.2-0.2,0.2-0.7,0-0.9c-0.2-0.2-0.6-0.2-0.9,0c-0.1,0.1-0.2,0.2-0.3,0.2
			c0,0,0.1-0.1,0.1-0.1c-0.2,0.1-0.4,0.3-0.6,0.4c0,0,0.1,0,0.1-0.1c-0.2,0.1-0.5,0.2-0.7,0.2c0.1,0,0.1,0,0.2,0c-0.1,0-0.1,0-0.2,0
			c-0.2,0-0.3,0.1-0.4,0.2c-0.1,0.1-0.2,0.3-0.2,0.4C200.3,167.5,200.6,167.8,200.9,167.8L200.9,167.8z"/>
	</g>
</g>
<g>
	<g>
		<path class="st1" d="M211.2,143.7c-0.2-2.2-0.5-4.4-0.9-6.6c-0.1-0.3-0.5-0.5-0.8-0.4c-0.4,0.1-0.5,0.4-0.4,0.8
			c0.4,2.1,0.6,4.2,0.9,6.3c0,0.3,0.3,0.6,0.6,0.6C210.9,144.3,211.2,144,211.2,143.7L211.2,143.7z"/>
	</g>
</g>
<g>
	<g>
		<path class="st1" d="M161.7,189.4c4.3-0.5,8.4-1.6,12.3-3.3c0.7-0.3,0.1-1.4-0.6-1.1c-3.7,1.6-7.7,2.7-11.7,3.2
			C160.9,188.3,160.9,189.5,161.7,189.4L161.7,189.4z"/>
	</g>
</g>
<g>
	<g>
		<path class="st1" d="M176.2,185.1c0.3,0,0.6-0.1,0.9-0.1c0.3-0.1,0.6-0.2,0.9-0.3c0.1-0.1,0.2-0.2,0.3-0.4c0-0.1,0-0.3-0.1-0.5
			c-0.1-0.1-0.2-0.3-0.4-0.3c-0.1,0-0.1,0-0.2,0c-0.1,0-0.2,0-0.3,0.1c0,0-0.1,0-0.1,0c0,0,0.1,0,0.1-0.1c-0.3,0.1-0.7,0.2-1,0.3
			c0.1,0,0.1,0,0.2,0c-0.1,0-0.2,0-0.3,0c-0.2,0-0.3,0.1-0.4,0.2c-0.1,0.1-0.2,0.3-0.2,0.4c0,0.2,0.1,0.3,0.2,0.4
			C175.9,185,176.1,185.1,176.2,185.1L176.2,185.1z"/>
	</g>
</g>
<g>
	<g>
		<path class="st1" d="M199.6,186.2c2-4,3.2-8.5,3.3-13c0-0.8-1.2-0.8-1.2,0c-0.1,4.3-1.2,8.5-3.1,12.4
			C198.1,186.3,199.2,186.9,199.6,186.2L199.6,186.2z"/>
	</g>
</g>
<g>
	<g>
		<path class="st1" d="M163,207.6c-3.4,0.9-6.9,1.2-10.4,1.1c-0.8,0-0.8,1.2,0,1.2c3.6,0.2,7.2-0.2,10.7-1.1
			C164.1,208.6,163.7,207.4,163,207.6L163,207.6z"/>
	</g>
</g>
<g>
	<g>
		<path class="st1" d="M78,185c1.8,1.6,3.3,3.3,4.6,5.3c0.2,0.3,0.5,0.4,0.9,0.2c0.3-0.2,0.4-0.6,0.2-0.9c-1.4-2-3-3.9-4.8-5.5
			c-0.3-0.2-0.6-0.2-0.9,0C77.8,184.4,77.8,184.8,78,185L78,185z"/>
	</g>
</g>
<g>
	<g>
		<path class="st1" d="M84.6,192.6c0.5,0.4,0.9,0.8,1.4,1.3c0.2,0.2,0.4,0.5,0.6,0.7c0,0,0.1,0.1,0.1,0.1c0,0.1,0,0,0,0
			c0.1,0.1,0.1,0.1,0.1,0.2c0.1,0.1,0.2,0.3,0.3,0.4c0.2,0.3,0.6,0.4,0.9,0.2c0.3-0.2,0.4-0.6,0.2-0.9c-0.7-1.1-1.6-2.1-2.6-2.9
			c-0.3-0.2-0.6-0.3-0.9,0C84.4,192,84.3,192.4,84.6,192.6L84.6,192.6z"/>
	</g>
</g>
<g>
	<g>
		<path class="st1" d="M77.9,75.6c-1.8,0.4-3.4-0.8-4.8-1.7c-0.3-0.2-0.7-0.1-0.9,0.2c-0.2,0.3-0.1,0.7,0.2,0.9
			c1.7,1.1,3.7,2.2,5.8,1.8c0.3-0.1,0.5-0.5,0.4-0.8C78.6,75.7,78.2,75.5,77.9,75.6L77.9,75.6z"/>
	</g>
</g>
<g>
	<g>
		<path class="st1" d="M56,55.9c-0.2-1.7-1.2-3.3-2.7-4.2c-0.3-0.2-0.7-0.1-0.9,0.2c-0.2,0.3-0.1,0.7,0.2,0.9
			c0.2,0.1,0.3,0.2,0.5,0.3c-0.1,0,0,0,0,0c0,0,0.1,0.1,0.1,0.1c0.1,0.1,0.1,0.1,0.2,0.2c0.1,0.1,0.2,0.2,0.4,0.4
			c0,0,0.1,0.1,0.1,0.1c0,0.1,0-0.1,0,0c0.1,0.1,0.1,0.1,0.2,0.2c0.1,0.1,0.2,0.3,0.3,0.5c0,0.1,0.1,0.2,0.1,0.2c0,0,0.1,0.1,0,0
			c0,0,0,0.1,0,0.1c0.1,0.2,0.1,0.3,0.2,0.5c0,0.1,0,0.2,0.1,0.2c0,0,0,0.1,0,0.1c0,0,0,0.2,0,0.1c0,0.3,0.3,0.6,0.6,0.6
			C55.6,56.5,56,56.3,56,55.9L56,55.9z"/>
	</g>
</g>
<g>
	<g>
		<path class="st1" d="M65.1,70.5c0.9,0.7,1.9,1.2,3,1.5c0.3,0.1,0.7-0.1,0.8-0.4c0.1-0.3-0.1-0.7-0.4-0.8c-0.2-0.1-0.5-0.1-0.7-0.2
			c-0.1,0-0.1,0-0.2-0.1c-0.1,0-0.1,0,0,0c0,0-0.1,0-0.1,0c-0.1-0.1-0.2-0.1-0.3-0.2c-0.2-0.1-0.4-0.2-0.6-0.4
			c-0.1-0.1-0.2-0.1-0.3-0.2c0,0-0.1-0.1-0.1-0.1c0.1,0.1,0,0-0.1,0c-0.1-0.1-0.3-0.2-0.4-0.2c-0.2,0-0.3,0.1-0.4,0.2
			C64.8,69.9,64.8,70.3,65.1,70.5L65.1,70.5z"/>
	</g>
</g>
<g>
	<g>
		<path class="st1" d="M36.9,140.8c-2.2,0.1-4.5,0-6.6-0.4c-0.8-0.2-1.1,1-0.3,1.2c2.3,0.5,4.6,0.6,7,0.5
			C37.7,142,37.7,140.8,36.9,140.8L36.9,140.8z"/>
	</g>
</g>
<g>
	<g>
		<path class="st1" d="M152.1,122.5c-2.5-0.6-4.7-2.2-7.3-1.9c-0.3,0-0.6,0.3-0.6,0.6c0,0.3,0.3,0.7,0.6,0.6c2.5-0.2,4.7,1.3,7,1.9
			C152.5,123.9,152.9,122.7,152.1,122.5L152.1,122.5z"/>
	</g>
</g>
</svg>
